<?xml version="1.0" encoding="UTF-8" standalone="no"?>
<svg
   xmlns:dc="http://purl.org/dc/elements/1.1/"
   xmlns:cc="http://creativecommons.org/ns#"
   xmlns:rdf="http://www.w3.org/1999/02/22-rdf-syntax-ns#"
   xmlns:svg="http://www.w3.org/2000/svg"
   xmlns="http://www.w3.org/2000/svg"
   xmlns:sodipodi="http://sodipodi.sourceforge.net/DTD/sodipodi-0.dtd"
   xmlns:inkscape="http://www.inkscape.org/namespaces/inkscape"
   width="355"
   height="86"
   viewBox="0 0 355.1 85.7"
   id="svg3937"
   version="1.1"
   inkscape:version="0.91 r13725"
   sodipodi:docname="citywise-logo-opt-inverse.svg">
  <metadata
     id="metadata4193">
    <rdf:RDF>
      <cc:Work
         rdf:about="">
        <dc:format>image/svg+xml</dc:format>
        <dc:type
           rdf:resource="http://purl.org/dc/dcmitype/StillImage" />
        <dc:title></dc:title>
      </cc:Work>
    </rdf:RDF>
  </metadata>
  <defs
     id="defs4191" />
  <sodipodi:namedview
     pagecolor="#ffffff"
     bordercolor="#666666"
     borderopacity="1"
     objecttolerance="10"
     gridtolerance="10"
     guidetolerance="10"
     inkscape:pageopacity="0"
     inkscape:pageshadow="2"
     inkscape:window-width="1283"
     inkscape:window-height="642"
     id="namedview4189"
     showgrid="false"
     inkscape:zoom="2.2746928"
     inkscape:cx="144.83321"
     inkscape:cy="43"
     inkscape:window-x="0"
     inkscape:window-y="0"
     inkscape:window-maximized="0"
     inkscape:current-layer="svg3937" />
  <style
     id="style3939">.a{fill:#FFF;}.b{fill:none;stroke:#000;}.c{fill:none;stroke-width:2;stroke:#000;}</style>
  <pattern
     x="27.1"
     y="93.8"
     width="69"
     height="69"
     patternUnits="userSpaceOnUse"
     viewBox="2.1 -70.9 69 69"
     id="pattern3941">
    <polygon
       points="71.1 -1.9 2.1 -1.9 2.1 -70.9 71.1 -70.9 "
       fill="none"
       id="polygon3943" />
    <polygon
       points="71.1 -1.9 2.1 -1.9 2.1 -70.9 71.1 -70.9 "
       fill="#F6BB60"
       id="polygon3945" />
    <path
       d="M61.8-71.7c0 0.1 0 0.1 0 0.2 -0.1 0.1-0.1 0.1-0.2 0.1 0 0.1-0.1 0.3-0.1 0.4 -0.2 0.1 0 0.2 0 0.4 0 0.1 0 0.1 0 0.2 0 0.1 0 0.3 0.1 0.4 0.1 0.2 0.3 0.4 0.4 0.5 0.2 0.1 0.4 0.6 0.6 0.6 0.2 0 0.4-0.1 0.5-0.1 0.2 0 0.4 0 0.6-0.1 0.2-0.1 0.1-0.3 0.3-0.4 0.1-0.1 0.3 0 0.4-0.1 0.2-0.1 0.3-0.3 0.4-0.5 0-0.1 0-0.1 0-0.2 0-0.1 0.1-0.2 0.1-0.3 0-0.1-0.1-0.1-0.1-0.2 0-0.1 0-0.2 0-0.3 0-0.2 0-0.4-0.1-0.5 -0.4-0.7-1.2-0.9-2-0.8 -0.2 0-0.3 0.1-0.4 0.2 -0.2 0.1-0.1 0.2-0.3 0.2 -0.1 0-0.2 0.1-0.2 0.2 0 0.1 0 0.1 0 0.2 0 0 0 0 0 0"
       class="a"
       id="path3947" />
    <path
       d="M54.1-71.7c0 0.1 0 0.1 0 0.2 -0.1 0.1-0.1 0.1-0.2 0.1 0 0.1-0.1 0.3-0.1 0.4 -0.2 0.1 0 0.2 0 0.4 0 0.1 0 0.1 0 0.2 0 0.1 0 0.3 0.1 0.4 0.1 0.2 0.3 0.4 0.4 0.5 0.2 0.1 0.4 0.6 0.6 0.6 0.2 0 0.4-0.1 0.5-0.1 0.2 0 0.4 0 0.6-0.1 0.2-0.1 0.1-0.3 0.3-0.4 0.1-0.1 0.3 0 0.4-0.1 0.2-0.1 0.3-0.3 0.4-0.5 0-0.1 0-0.1 0-0.2 0-0.1 0.1-0.2 0.1-0.3 0-0.1-0.1-0.1-0.1-0.2 0-0.1 0-0.2 0-0.3 0-0.2 0-0.4-0.1-0.5 -0.4-0.7-1.2-0.9-2-0.8 -0.2 0-0.3 0.1-0.4 0.2 -0.2 0.1-0.1 0.2-0.3 0.2 -0.1 0-0.2 0.1-0.2 0.2 0 0.1 0 0.1 0 0.2 0 0 0 0 0 0"
       class="a"
       id="path3949" />
    <path
       d="M46.4-71.7c0 0.1 0 0.1 0 0.2 -0.1 0.1-0.1 0.1-0.2 0.1 0 0.1-0.1 0.3-0.1 0.4 -0.2 0.1 0 0.2 0 0.4 0 0.1 0 0.1 0 0.2 0 0.1 0 0.3 0.1 0.4 0.1 0.2 0.3 0.4 0.4 0.5 0.2 0.1 0.4 0.6 0.6 0.6 0.2 0 0.4-0.1 0.5-0.1 0.2 0 0.4 0 0.6-0.1 0.2-0.1 0.1-0.3 0.3-0.4 0.1-0.1 0.3 0 0.4-0.1 0.2-0.1 0.3-0.3 0.4-0.5 0-0.1 0-0.1 0-0.2 0-0.1 0.1-0.2 0.1-0.3 0-0.1-0.1-0.1-0.1-0.2 0-0.1 0-0.2 0-0.3 0-0.2 0-0.4-0.1-0.5 -0.4-0.7-1.2-0.9-2-0.8 -0.2 0-0.3 0.1-0.4 0.2 -0.2 0.1-0.1 0.2-0.3 0.2 -0.1 0-0.2 0.1-0.2 0.2 0 0.1 0 0.1 0 0.2 0 0 0 0 0 0"
       class="a"
       id="path3951" />
    <path
       d="M38.8-71.7c0 0.1 0 0.1 0 0.2 -0.1 0.1-0.1 0.1-0.2 0.1 0 0.1-0.1 0.3-0.1 0.4 -0.2 0.1 0 0.2 0 0.4 0 0.1 0 0.1 0 0.2 0 0.1 0 0.3 0.1 0.4 0.1 0.2 0.3 0.4 0.4 0.5 0.2 0.1 0.4 0.6 0.6 0.6 0.2 0 0.4-0.1 0.5-0.1 0.2 0 0.4 0 0.6-0.1 0.2-0.1 0.1-0.3 0.3-0.4 0.1-0.1 0.3 0 0.4-0.1 0.2-0.1 0.3-0.3 0.4-0.5 0-0.1 0-0.1 0-0.2 0-0.1 0.1-0.2 0.1-0.3 0-0.1-0.1-0.1-0.1-0.2 0-0.1 0-0.2 0-0.3 0-0.2 0-0.4-0.1-0.5 -0.4-0.7-1.2-0.9-2-0.8 -0.2 0-0.3 0.1-0.4 0.2 -0.2 0.1-0.1 0.2-0.3 0.2 -0.1 0-0.2 0.1-0.2 0.2 0 0.1 0 0.1 0 0.2 0 0 0 0 0 0"
       class="a"
       id="path3953" />
    <path
       d="M31.1-71.7c0 0.1 0 0.1 0 0.2 -0.1 0.1-0.1 0.1-0.2 0.1 0 0.1-0.1 0.3-0.1 0.4 -0.2 0.1 0 0.2 0 0.4 0 0.1 0 0.1 0 0.2 0 0.1 0 0.3 0.1 0.4 0.1 0.2 0.3 0.4 0.4 0.5 0.2 0.1 0.4 0.6 0.6 0.6 0.2 0 0.4-0.1 0.5-0.1 0.2 0 0.4 0 0.6-0.1 0.2-0.1 0.1-0.3 0.3-0.4 0.1-0.1 0.3 0 0.4-0.1 0.2-0.1 0.3-0.3 0.4-0.5 0-0.1 0-0.1 0-0.2 0-0.1 0.1-0.2 0.1-0.3 0-0.1-0.1-0.1-0.1-0.2 0-0.1 0-0.2 0-0.3 0-0.2 0-0.4-0.1-0.5 -0.4-0.7-1.2-0.9-2-0.8 -0.2 0-0.3 0.1-0.4 0.2 -0.2 0.1-0.1 0.2-0.3 0.2 -0.1 0-0.2 0.1-0.2 0.2 0 0.1 0 0.1 0 0.2 0 0 0 0 0 0"
       class="a"
       id="path3955" />
    <path
       d="M23.4-71.7c0 0.1 0 0.1 0 0.2 -0.1 0.1-0.1 0.1-0.2 0.1 0 0.1-0.1 0.3-0.1 0.4 -0.2 0.1 0 0.2 0 0.4 0 0.1 0 0.1 0 0.2 0 0.1 0 0.3 0.1 0.4 0.1 0.2 0.3 0.4 0.4 0.5 0.2 0.1 0.4 0.6 0.6 0.6 0.2 0 0.4-0.1 0.5-0.1 0.2 0 0.4 0 0.6-0.1 0.2-0.1 0.1-0.3 0.3-0.4 0.1-0.1 0.3 0 0.4-0.1 0.2-0.1 0.3-0.3 0.4-0.5 0-0.1 0-0.1 0-0.2 0-0.1 0.1-0.2 0.1-0.3 0-0.1-0.1-0.1-0.1-0.2 0-0.1 0-0.2 0-0.3 0-0.2 0-0.4-0.1-0.5 -0.4-0.7-1.2-0.9-2-0.8 -0.2 0-0.3 0.1-0.4 0.2 -0.2 0.1-0.1 0.2-0.3 0.2 -0.1 0-0.2 0.1-0.2 0.2 0 0.1 0 0.1 0 0.2 0 0 0 0 0 0"
       class="a"
       id="path3957" />
    <path
       d="M15.8-71.7c0 0.1 0 0.1 0 0.2 -0.1 0.1-0.1 0.1-0.2 0.1 0 0.1-0.1 0.3-0.1 0.4 -0.2 0.1 0 0.2 0 0.4 0 0.1 0 0.1 0 0.2 0 0.1 0 0.3 0.1 0.4 0.1 0.2 0.3 0.4 0.4 0.5 0.2 0.1 0.4 0.6 0.6 0.6 0.2 0 0.4-0.1 0.5-0.1 0.2 0 0.4 0 0.6-0.1 0.2-0.1 0.1-0.3 0.3-0.4 0.1-0.1 0.3 0 0.4-0.1 0.2-0.1 0.3-0.3 0.4-0.5 0-0.1 0-0.1 0-0.2 0-0.1 0.1-0.2 0.1-0.3 0-0.1-0.1-0.1-0.1-0.2 0-0.1 0-0.2 0-0.3 0-0.2 0-0.4-0.1-0.5 -0.4-0.7-1.2-0.9-2-0.8 -0.2 0-0.3 0.1-0.4 0.2 -0.2 0.1-0.1 0.2-0.3 0.2 -0.1 0-0.2 0.1-0.2 0.2 0 0.1 0 0.1 0 0.2 0 0 0 0 0 0"
       class="a"
       id="path3959" />
    <path
       d="M8.1-71.7c0 0.1 0 0.1 0 0.2 -0.1 0.1-0.1 0.1-0.2 0.1 0 0.1-0.1 0.3-0.1 0.4 -0.2 0.1 0 0.2 0 0.4 0 0.1 0 0.1 0 0.2 0 0.1 0 0.3 0.1 0.4 0.1 0.2 0.3 0.4 0.4 0.5 0.2 0.1 0.4 0.6 0.6 0.6 0.2 0 0.4-0.1 0.5-0.1 0.2 0 0.4 0 0.6-0.1 0.2-0.1 0.1-0.3 0.3-0.4 0.1-0.1 0.3 0 0.4-0.1 0.2-0.1 0.3-0.3 0.4-0.5 0-0.1 0-0.1 0-0.2 0-0.1 0.1-0.2 0.1-0.3 0-0.1-0.1-0.1-0.1-0.2 0-0.1 0-0.2 0-0.3 0-0.2 0-0.4-0.1-0.5 -0.4-0.7-1.2-0.9-2-0.8 -0.2 0-0.3 0.1-0.4 0.2 -0.2 0.1-0.1 0.2-0.3 0.2 -0.1 0-0.2 0.1-0.2 0.2 0 0.1 0 0.1 0 0.2 0 0 0 0 0 0"
       class="a"
       id="path3961" />
    <path
       d="M0.4-71.7c0 0.1 0 0.1 0 0.2C0.4-71.4 0.3-71.4 0.2-71.3c-0.1 0.1-0.1 0.3-0.1 0.4 -0.2 0.1 0 0.2 0 0.4 0 0.1 0 0.1 0 0.2 0 0.1 0 0.3 0.1 0.4 0.1 0.2 0.3 0.4 0.4 0.5 0.2 0.1 0.4 0.6 0.6 0.6 0.2 0 0.4-0.1 0.5-0.1 0.2 0 0.4 0 0.6-0.1 0.2-0.1 0.1-0.3 0.3-0.4 0.1-0.1 0.3 0 0.4-0.1 0.2-0.1 0.3-0.3 0.4-0.5 0-0.1 0-0.1 0-0.2 0-0.1 0.1-0.2 0.1-0.3 0-0.1-0.1-0.1-0.1-0.2 0-0.1 0-0.2 0-0.3 0-0.2 0-0.4-0.1-0.5 -0.4-0.7-1.2-0.9-2-0.8 -0.2 0-0.3 0.1-0.4 0.2 -0.2 0.1-0.1 0.2-0.3 0.2 -0.1 0-0.2 0.1-0.2 0.2 0 0.1 0 0.1 0 0.2 0 0 0 0 0 0"
       class="a"
       id="path3963" />
    <path
       d="M69.4-71.7c0 0.1 0 0.1 0 0.2 -0.1 0.1-0.1 0.1-0.2 0.1 -0.1 0.1-0.1 0.3-0.1 0.4 -0.2 0.1 0 0.2 0 0.4 0 0.1 0 0.1 0 0.2 0 0.1 0 0.3 0.1 0.4 0.1 0.2 0.3 0.4 0.4 0.5 0.2 0.1 0.4 0.6 0.6 0.6 0.2 0 0.4-0.1 0.5-0.1 0.2 0 0.4 0 0.6-0.1 0.2-0.1 0.1-0.3 0.3-0.4 0.1-0.1 0.3 0 0.4-0.1 0.2-0.1 0.3-0.3 0.4-0.5 0-0.1 0-0.1 0-0.2 0-0.1 0.1-0.2 0.1-0.3 0-0.1-0.1-0.1-0.1-0.2 0-0.1 0-0.2 0-0.3 0-0.2 0-0.4-0.1-0.5 -0.4-0.7-1.2-0.9-2-0.8 -0.2 0-0.3 0.1-0.4 0.2 -0.2 0.1-0.1 0.2-0.3 0.2 -0.1 0-0.2 0.1-0.2 0.2 0 0.1 0 0.1 0 0.2 0 0 0 0 0 0"
       class="a"
       id="path3965" />
    <path
       d="M0.5-71.7c0 0.1 0 0.1 0 0.2 -0.1 0.1-0.1 0.1-0.2 0.1 -0.1 0.1-0.1 0.3-0.1 0.4 -0.2 0.1 0 0.2 0 0.4 0 0.1 0 0.1 0 0.2 0 0.1 0 0.3 0.1 0.4 0.1 0.2 0.3 0.4 0.4 0.5 0.2 0.1 0.4 0.6 0.6 0.6 0.2 0 0.4-0.1 0.5-0.1 0.2 0 0.4 0 0.6-0.1 0.2-0.1 0.1-0.3 0.3-0.4 0.1-0.1 0.3 0 0.4-0.1 0.2-0.1 0.3-0.3 0.4-0.5 0-0.1 0-0.1 0-0.2 0-0.1 0.1-0.2 0.1-0.3 0-0.1-0.1-0.1-0.1-0.2 0-0.1 0-0.2 0-0.3 0-0.2 0-0.4-0.1-0.5 -0.4-0.7-1.2-0.9-2-0.8 -0.2 0-0.3 0.1-0.4 0.2 -0.2 0.1-0.1 0.2-0.3 0.2 -0.1 0-0.2 0.1-0.2 0.2C0.5-71.7 0.5-71.7 0.5-71.6c0 0 0 0 0 0"
       class="a"
       id="path3967" />
    <path
       d="M69.4-64c0 0.1 0 0.1 0 0.2 -0.1 0.1-0.1 0.1-0.2 0.1 0 0.1-0.1 0.3-0.1 0.4 -0.2 0.1 0 0.2 0 0.4 0 0.1 0 0.1 0 0.2 0 0.1 0 0.3 0.1 0.4 0.1 0.2 0.3 0.4 0.4 0.5 0.2 0.1 0.4 0.6 0.6 0.6 0.2 0 0.4-0.1 0.5-0.1 0.2 0 0.4 0 0.6-0.1 0.2-0.1 0.1-0.3 0.3-0.4 0.1-0.1 0.3 0 0.4-0.1 0.2-0.1 0.3-0.3 0.4-0.5 0-0.1 0-0.1 0-0.2 0-0.1 0.1-0.2 0.1-0.3 0-0.1-0.1-0.1-0.1-0.2 0-0.1 0-0.2 0-0.3 0-0.2 0-0.4-0.1-0.5 -0.4-0.7-1.2-0.9-2-0.8 -0.2 0-0.3 0.1-0.4 0.2 -0.2 0.1-0.1 0.2-0.3 0.2 -0.1 0-0.2 0.1-0.2 0.2 0 0.1 0 0.1 0 0.2 0 0 0 0 0 0"
       class="a"
       id="path3969" />
    <path
       d="M61.8-64c0 0.1 0 0.1 0 0.2 -0.1 0.1-0.1 0.1-0.2 0.1 0 0.1-0.1 0.3-0.1 0.4 -0.2 0.1 0 0.2 0 0.4 0 0.1 0 0.1 0 0.2 0 0.1 0 0.3 0.1 0.4 0.1 0.2 0.3 0.4 0.4 0.5 0.2 0.1 0.4 0.6 0.6 0.6 0.2 0 0.4-0.1 0.5-0.1 0.2 0 0.4 0 0.6-0.1 0.2-0.1 0.1-0.3 0.3-0.4 0.1-0.1 0.3 0 0.4-0.1 0.2-0.1 0.3-0.3 0.4-0.5 0-0.1 0-0.1 0-0.2 0-0.1 0.1-0.2 0.1-0.3 0-0.1-0.1-0.1-0.1-0.2 0-0.1 0-0.2 0-0.3 0-0.2 0-0.4-0.1-0.5 -0.4-0.7-1.2-0.9-2-0.8 -0.2 0-0.3 0.1-0.4 0.2 -0.2 0.1-0.1 0.2-0.3 0.2 -0.1 0-0.2 0.1-0.2 0.2 0 0.1 0 0.1 0 0.2 0 0 0 0 0 0"
       class="a"
       id="path3971" />
    <path
       d="M54.1-64c0 0.1 0 0.1 0 0.2 -0.1 0.1-0.1 0.1-0.2 0.1 0 0.1-0.1 0.3-0.1 0.4 -0.2 0.1 0 0.2 0 0.4 0 0.1 0 0.1 0 0.2 0 0.1 0 0.3 0.1 0.4 0.1 0.2 0.3 0.4 0.4 0.5 0.2 0.1 0.4 0.6 0.6 0.6 0.2 0 0.4-0.1 0.5-0.1 0.2 0 0.4 0 0.6-0.1 0.2-0.1 0.1-0.3 0.3-0.4 0.1-0.1 0.3 0 0.4-0.1 0.2-0.1 0.3-0.3 0.4-0.5 0-0.1 0-0.1 0-0.2 0-0.1 0.1-0.2 0.1-0.3 0-0.1-0.1-0.1-0.1-0.2 0-0.1 0-0.2 0-0.3 0-0.2 0-0.4-0.1-0.5 -0.4-0.7-1.2-0.9-2-0.8 -0.2 0-0.3 0.1-0.4 0.2 -0.2 0.1-0.1 0.2-0.3 0.2 -0.1 0-0.2 0.1-0.2 0.2 0 0.1 0 0.1 0 0.2 0 0 0 0 0 0"
       class="a"
       id="path3973" />
    <path
       d="M46.5-64c0 0.1 0 0.1 0 0.2 -0.1 0.1-0.1 0.1-0.2 0.1 0 0.1-0.1 0.3-0.1 0.4 -0.2 0.1 0 0.2 0 0.4 0 0.1 0 0.1 0 0.2 0 0.1 0 0.3 0.1 0.4 0.1 0.2 0.3 0.4 0.4 0.5 0.2 0.1 0.4 0.6 0.6 0.6 0.2 0 0.4-0.1 0.5-0.1 0.2 0 0.4 0 0.6-0.1 0.2-0.1 0.1-0.3 0.3-0.4 0.1-0.1 0.3 0 0.4-0.1 0.2-0.1 0.3-0.3 0.4-0.5 0-0.1 0-0.1 0-0.2 0-0.1 0.1-0.2 0.1-0.3 0-0.1-0.1-0.1-0.1-0.2 0-0.1 0-0.2 0-0.3 0-0.2 0-0.4-0.1-0.5 -0.4-0.7-1.2-0.9-2-0.8 -0.2 0-0.3 0.1-0.4 0.2 -0.2 0.1-0.1 0.2-0.3 0.2 -0.1 0-0.2 0.1-0.2 0.2 0 0.1 0 0.1 0 0.2 0 0 0 0 0 0"
       class="a"
       id="path3975" />
    <path
       d="M38.8-64c0 0.1 0 0.1 0 0.2 -0.1 0.1-0.1 0.1-0.2 0.1 0 0.1-0.1 0.3-0.1 0.4 -0.2 0.1 0 0.2 0 0.4 0 0.1 0 0.1 0 0.2 0 0.1 0 0.3 0.1 0.4 0.1 0.2 0.3 0.4 0.4 0.5 0.2 0.1 0.4 0.6 0.6 0.6 0.2 0 0.4-0.1 0.5-0.1 0.2 0 0.4 0 0.6-0.1 0.2-0.1 0.1-0.3 0.3-0.4 0.1-0.1 0.3 0 0.4-0.1 0.2-0.1 0.3-0.3 0.4-0.5 0-0.1 0-0.1 0-0.2 0-0.1 0.1-0.2 0.1-0.3 0-0.1-0.1-0.1-0.1-0.2 0-0.1 0-0.2 0-0.3 0-0.2 0-0.4-0.1-0.5 -0.4-0.7-1.2-0.9-2-0.8 -0.2 0-0.3 0.1-0.4 0.2 -0.2 0.1-0.1 0.2-0.3 0.2 -0.1 0-0.2 0.1-0.2 0.2 0 0.1 0 0.1 0 0.2 0 0 0 0 0 0"
       class="a"
       id="path3977" />
    <path
       d="M31.1-64c0 0.1 0 0.1 0 0.2 -0.1 0.1-0.1 0.1-0.2 0.1 0 0.1-0.1 0.3-0.1 0.4 -0.2 0.1 0 0.2 0 0.4 0 0.1 0 0.1 0 0.2 0 0.1 0 0.3 0.1 0.4 0.1 0.2 0.3 0.4 0.4 0.5 0.2 0.1 0.4 0.6 0.6 0.6 0.2 0 0.4-0.1 0.5-0.1 0.2 0 0.4 0 0.6-0.1 0.2-0.1 0.1-0.3 0.3-0.4 0.1-0.1 0.3 0 0.4-0.1 0.2-0.1 0.3-0.3 0.4-0.5 0-0.1 0-0.1 0-0.2 0-0.1 0.1-0.2 0.1-0.3 0-0.1-0.1-0.1-0.1-0.2 0-0.1 0-0.2 0-0.3 0-0.2 0-0.4-0.1-0.5 -0.4-0.7-1.2-0.9-2-0.8 -0.2 0-0.3 0.1-0.4 0.2 -0.2 0.1-0.1 0.2-0.3 0.2 -0.1 0-0.2 0.1-0.2 0.2 0 0.1 0 0.1 0 0.2 0 0 0 0 0 0"
       class="a"
       id="path3979" />
    <path
       d="M23.5-64c0 0.1 0 0.1 0 0.2 -0.1 0.1-0.1 0.1-0.2 0.1 0 0.1-0.1 0.3-0.1 0.4 -0.2 0.1 0 0.2 0 0.4 0 0.1 0 0.1 0 0.2 0 0.1 0 0.3 0.1 0.4 0.1 0.2 0.3 0.4 0.4 0.5 0.2 0.1 0.4 0.6 0.6 0.6 0.2 0 0.4-0.1 0.5-0.1 0.2 0 0.4 0 0.6-0.1 0.2-0.1 0.1-0.3 0.3-0.4 0.1-0.1 0.3 0 0.4-0.1 0.2-0.1 0.3-0.3 0.4-0.5 0-0.1 0-0.1 0-0.2 0-0.1 0.1-0.2 0.1-0.3 0-0.1-0.1-0.1-0.1-0.2 0-0.1 0-0.2 0-0.3 0-0.2 0-0.4-0.1-0.5 -0.4-0.7-1.2-0.9-2-0.8 -0.2 0-0.3 0.1-0.4 0.2 -0.2 0.1-0.1 0.2-0.3 0.2 -0.1 0-0.2 0.1-0.2 0.2 0 0.1 0 0.1 0 0.2 0 0 0 0 0 0"
       class="a"
       id="path3981" />
    <path
       d="M15.8-64c0 0.1 0 0.1 0 0.2 -0.1 0.1-0.1 0.1-0.2 0.1 0 0.1-0.1 0.3-0.1 0.4 -0.2 0.1 0 0.2 0 0.4 0 0.1 0 0.1 0 0.2 0 0.1 0 0.3 0.1 0.4 0.1 0.2 0.3 0.4 0.4 0.5 0.2 0.1 0.4 0.6 0.6 0.6 0.2 0 0.4-0.1 0.5-0.1 0.2 0 0.4 0 0.6-0.1 0.2-0.1 0.1-0.3 0.3-0.4 0.1-0.1 0.3 0 0.4-0.1 0.2-0.1 0.3-0.3 0.4-0.5 0-0.1 0-0.1 0-0.2 0-0.1 0.1-0.2 0.1-0.3 0-0.1-0.1-0.1-0.1-0.2 0-0.1 0-0.2 0-0.3 0-0.2 0-0.4-0.1-0.5 -0.4-0.7-1.2-0.9-2-0.8 -0.2 0-0.3 0.1-0.4 0.2 -0.2 0.1-0.1 0.2-0.3 0.2 -0.1 0-0.2 0.1-0.2 0.2 0 0.1 0 0.1 0 0.2 0 0 0 0 0 0"
       class="a"
       id="path3983" />
    <path
       d="M8.2-64c0 0.1 0 0.1 0 0.2 -0.1 0.1-0.1 0.1-0.2 0.1 0 0.1-0.1 0.3-0.1 0.4 -0.2 0.1 0 0.2 0 0.4 0 0.1 0 0.1 0 0.2 0 0.1 0 0.3 0.1 0.4 0.1 0.2 0.3 0.4 0.4 0.5 0.2 0.1 0.4 0.6 0.6 0.6 0.2 0 0.4-0.1 0.5-0.1 0.2 0 0.4 0 0.6-0.1 0.2-0.1 0.1-0.3 0.3-0.4 0.1-0.1 0.3 0 0.4-0.1 0.2-0.1 0.3-0.3 0.4-0.5 0-0.1 0-0.1 0-0.2 0-0.1 0.1-0.2 0.1-0.3 0-0.1-0.1-0.1-0.1-0.2 0-0.1 0-0.2 0-0.3 0-0.2 0-0.4-0.1-0.5 -0.4-0.7-1.2-0.9-2-0.8 -0.2 0-0.3 0.1-0.4 0.2 -0.2 0.1-0.1 0.2-0.3 0.2 -0.1 0-0.2 0.1-0.2 0.2 0 0.1 0 0.1 0 0.2 0 0 0 0 0 0"
       class="a"
       id="path3985" />
    <path
       d="M0.5-64c0 0.1 0 0.1 0 0.2 -0.1 0.1-0.1 0.1-0.2 0.1 0 0.1-0.1 0.3-0.1 0.4 -0.2 0.1 0 0.2 0 0.4 0 0.1 0 0.1 0 0.2 0 0.1 0 0.3 0.1 0.4 0.1 0.2 0.3 0.4 0.4 0.5 0.2 0.1 0.4 0.6 0.6 0.6 0.2 0 0.4-0.1 0.5-0.1C2-61.4 2.2-61.4 2.4-61.5c0.2-0.1 0.1-0.3 0.3-0.4 0.1-0.1 0.3 0 0.4-0.1 0.2-0.1 0.3-0.3 0.4-0.5 0-0.1 0-0.1 0-0.2 0-0.1 0.1-0.2 0.1-0.3 0-0.1-0.1-0.1-0.1-0.2 0-0.1 0-0.2 0-0.3 0-0.2 0-0.4-0.1-0.5 -0.4-0.7-1.2-0.9-2-0.8 -0.2 0-0.3 0.1-0.4 0.2 -0.2 0.1-0.1 0.2-0.3 0.2 -0.1 0-0.2 0.1-0.2 0.2 0 0.1 0 0.1 0 0.2 0 0 0 0 0 0"
       class="a"
       id="path3987" />
    <path
       d="M69.4-56.3c0 0.1 0 0.1 0 0.2 -0.1 0.1-0.1 0.1-0.2 0.1 0 0.1-0.1 0.3-0.1 0.4 -0.2 0.1 0 0.2 0 0.4 0 0.1 0 0.1 0 0.2 0 0.1 0 0.3 0.1 0.4 0.1 0.2 0.3 0.4 0.4 0.5 0.2 0.1 0.4 0.6 0.6 0.6 0.2 0 0.4-0.1 0.5-0.1 0.2 0 0.4 0 0.6-0.1 0.2-0.1 0.1-0.3 0.3-0.4 0.1-0.1 0.3 0 0.4-0.1 0.2-0.1 0.3-0.3 0.4-0.5 0-0.1 0-0.1 0-0.2 0-0.1 0.1-0.2 0.1-0.3 0-0.1-0.1-0.1-0.1-0.2 0-0.1 0-0.2 0-0.3 0-0.2 0-0.4-0.1-0.5 -0.4-0.7-1.2-0.9-2-0.8 -0.2 0-0.3 0.1-0.4 0.2 -0.2 0.1-0.1 0.2-0.3 0.2 -0.1 0-0.2 0.1-0.2 0.2 0 0.1 0 0.1 0 0.2 0 0 0 0 0 0"
       class="a"
       id="path3989" />
    <path
       d="M61.8-56.3c0 0.1 0 0.1 0 0.2 -0.1 0.1-0.1 0.1-0.2 0.1 0 0.1-0.1 0.3-0.1 0.4 -0.2 0.1 0 0.2 0 0.4 0 0.1 0 0.1 0 0.2 0 0.1 0 0.3 0.1 0.4 0.1 0.2 0.3 0.4 0.4 0.5 0.2 0.1 0.4 0.6 0.6 0.6 0.2 0 0.4-0.1 0.5-0.1 0.2 0 0.4 0 0.6-0.1 0.2-0.1 0.1-0.3 0.3-0.4 0.1-0.1 0.3 0 0.4-0.1 0.2-0.1 0.3-0.3 0.4-0.5 0-0.1 0-0.1 0-0.2 0-0.1 0.1-0.2 0.1-0.3 0-0.1-0.1-0.1-0.1-0.2 0-0.1 0-0.2 0-0.3 0-0.2 0-0.4-0.1-0.5 -0.4-0.7-1.2-0.9-2-0.8 -0.2 0-0.3 0.1-0.4 0.2 -0.2 0.1-0.1 0.2-0.3 0.2 -0.1 0-0.2 0.1-0.2 0.2 0 0.1 0 0.1 0 0.2 0 0 0 0 0 0"
       class="a"
       id="path3991" />
    <path
       d="M54.1-56.3c0 0.1 0 0.1 0 0.2 -0.1 0.1-0.1 0.1-0.2 0.1 0 0.1-0.1 0.3-0.1 0.4 -0.2 0.1 0 0.2 0 0.4 0 0.1 0 0.1 0 0.2 0 0.1 0 0.3 0.1 0.4 0.1 0.2 0.3 0.4 0.4 0.5 0.2 0.1 0.4 0.6 0.6 0.6 0.2 0 0.4-0.1 0.5-0.1 0.2 0 0.4 0 0.6-0.1 0.2-0.1 0.1-0.3 0.3-0.4 0.1-0.1 0.3 0 0.4-0.1 0.2-0.1 0.3-0.3 0.4-0.5 0-0.1 0-0.1 0-0.2 0-0.1 0.1-0.2 0.1-0.3 0-0.1-0.1-0.1-0.1-0.2 0-0.1 0-0.2 0-0.3 0-0.2 0-0.4-0.1-0.5 -0.4-0.7-1.2-0.9-2-0.8 -0.2 0-0.3 0.1-0.4 0.2 -0.2 0.1-0.1 0.2-0.3 0.2 -0.1 0-0.2 0.1-0.2 0.2 0 0.1 0 0.1 0 0.2 0 0 0 0 0 0"
       class="a"
       id="path3993" />
    <path
       d="M46.5-56.3c0 0.1 0 0.1 0 0.2 -0.1 0.1-0.1 0.1-0.2 0.1 0 0.1-0.1 0.3-0.1 0.4 -0.2 0.1 0 0.2 0 0.4 0 0.1 0 0.1 0 0.2 0 0.1 0 0.3 0.1 0.4 0.1 0.2 0.3 0.4 0.4 0.5 0.2 0.1 0.4 0.6 0.6 0.6 0.2 0 0.4-0.1 0.5-0.1 0.2 0 0.4 0 0.6-0.1 0.2-0.1 0.1-0.3 0.3-0.4 0.1-0.1 0.3 0 0.4-0.1 0.2-0.1 0.3-0.3 0.4-0.5 0-0.1 0-0.1 0-0.2 0-0.1 0.1-0.2 0.1-0.3 0-0.1-0.1-0.1-0.1-0.2 0-0.1 0-0.2 0-0.3 0-0.2 0-0.4-0.1-0.5 -0.4-0.7-1.2-0.9-2-0.8 -0.2 0-0.3 0.1-0.4 0.2 -0.2 0.1-0.1 0.2-0.3 0.2 -0.1 0-0.2 0.1-0.2 0.2 0 0.1 0 0.1 0 0.2 0 0 0 0 0 0"
       class="a"
       id="path3995" />
    <path
       d="M38.8-56.3c0 0.1 0 0.1 0 0.2 -0.1 0.1-0.1 0.1-0.2 0.1 0 0.1-0.1 0.3-0.1 0.4 -0.2 0.1 0 0.2 0 0.4 0 0.1 0 0.1 0 0.2 0 0.1 0 0.3 0.1 0.4 0.1 0.2 0.3 0.4 0.4 0.5 0.2 0.1 0.4 0.6 0.6 0.6 0.2 0 0.4-0.1 0.5-0.1 0.2 0 0.4 0 0.6-0.1 0.2-0.1 0.1-0.3 0.3-0.4 0.1-0.1 0.3 0 0.4-0.1 0.2-0.1 0.3-0.3 0.4-0.5 0-0.1 0-0.1 0-0.2 0-0.1 0.1-0.2 0.1-0.3 0-0.1-0.1-0.1-0.1-0.2 0-0.1 0-0.2 0-0.3 0-0.2 0-0.4-0.1-0.5 -0.4-0.7-1.2-0.9-2-0.8 -0.2 0-0.3 0.1-0.4 0.2 -0.2 0.1-0.1 0.2-0.3 0.2 -0.1 0-0.2 0.1-0.2 0.2 0 0.1 0 0.1 0 0.2 0 0 0 0 0 0"
       class="a"
       id="path3997" />
    <path
       d="M31.1-56.3c0 0.1 0 0.1 0 0.2 -0.1 0.1-0.1 0.1-0.2 0.1 0 0.1-0.1 0.3-0.1 0.4 -0.2 0.1 0 0.2 0 0.4 0 0.1 0 0.1 0 0.2 0 0.1 0 0.3 0.1 0.4 0.1 0.2 0.3 0.4 0.4 0.5 0.2 0.1 0.4 0.6 0.6 0.6 0.2 0 0.4-0.1 0.5-0.1 0.2 0 0.4 0 0.6-0.1 0.2-0.1 0.1-0.3 0.3-0.4 0.1-0.1 0.3 0 0.4-0.1 0.2-0.1 0.3-0.3 0.4-0.5 0-0.1 0-0.1 0-0.2 0-0.1 0.1-0.2 0.1-0.3 0-0.1-0.1-0.1-0.1-0.2 0-0.1 0-0.2 0-0.3 0-0.2 0-0.4-0.1-0.5 -0.4-0.7-1.2-0.9-2-0.8 -0.2 0-0.3 0.1-0.4 0.2 -0.2 0.1-0.1 0.2-0.3 0.2 -0.1 0-0.2 0.1-0.2 0.2 0 0.1 0 0.1 0 0.2 0 0 0 0 0 0"
       class="a"
       id="path3999" />
    <path
       d="M23.5-56.3c0 0.1 0 0.1 0 0.2 -0.1 0.1-0.1 0.1-0.2 0.1 0 0.1-0.1 0.3-0.1 0.4 -0.2 0.1 0 0.2 0 0.4 0 0.1 0 0.1 0 0.2 0 0.1 0 0.3 0.1 0.4 0.1 0.2 0.3 0.4 0.4 0.5 0.2 0.1 0.4 0.6 0.6 0.6 0.2 0 0.4-0.1 0.5-0.1 0.2 0 0.4 0 0.6-0.1 0.2-0.1 0.1-0.3 0.3-0.4 0.1-0.1 0.3 0 0.4-0.1 0.2-0.1 0.3-0.3 0.4-0.5 0-0.1 0-0.1 0-0.2 0-0.1 0.1-0.2 0.1-0.3 0-0.1-0.1-0.1-0.1-0.2 0-0.1 0-0.2 0-0.3 0-0.2 0-0.4-0.1-0.5 -0.4-0.7-1.2-0.9-2-0.8 -0.2 0-0.3 0.1-0.4 0.2 -0.2 0.1-0.1 0.2-0.3 0.2 -0.1 0-0.2 0.1-0.2 0.2 0 0.1 0 0.1 0 0.2 0 0 0 0 0 0"
       class="a"
       id="path4001" />
    <path
       d="M15.8-56.3c0 0.1 0 0.1 0 0.2 -0.1 0.1-0.1 0.1-0.2 0.1 0 0.1-0.1 0.3-0.1 0.4 -0.2 0.1 0 0.2 0 0.4 0 0.1 0 0.1 0 0.2 0 0.1 0 0.3 0.1 0.4 0.1 0.2 0.3 0.4 0.4 0.5 0.2 0.1 0.4 0.6 0.6 0.6 0.2 0 0.4-0.1 0.5-0.1 0.2 0 0.4 0 0.6-0.1 0.2-0.1 0.1-0.3 0.3-0.4 0.1-0.1 0.3 0 0.4-0.1 0.2-0.1 0.3-0.3 0.4-0.5 0-0.1 0-0.1 0-0.2 0-0.1 0.1-0.2 0.1-0.3 0-0.1-0.1-0.1-0.1-0.2 0-0.1 0-0.2 0-0.3 0-0.2 0-0.4-0.1-0.5 -0.4-0.7-1.2-0.9-2-0.8 -0.2 0-0.3 0.1-0.4 0.2 -0.2 0.1-0.1 0.2-0.3 0.2 -0.1 0-0.2 0.1-0.2 0.2 0 0.1 0 0.1 0 0.2 0 0 0 0 0 0"
       class="a"
       id="path4003" />
    <path
       d="M8.2-56.3c0 0.1 0 0.1 0 0.2 -0.1 0.1-0.1 0.1-0.2 0.1 0 0.1-0.1 0.3-0.1 0.4 -0.2 0.1 0 0.2 0 0.4 0 0.1 0 0.1 0 0.2 0 0.1 0 0.3 0.1 0.4 0.1 0.2 0.3 0.4 0.4 0.5 0.2 0.1 0.4 0.6 0.6 0.6 0.2 0 0.4-0.1 0.5-0.1 0.2 0 0.4 0 0.6-0.1 0.2-0.1 0.1-0.3 0.3-0.4 0.1-0.1 0.3 0 0.4-0.1 0.2-0.1 0.3-0.3 0.4-0.5 0-0.1 0-0.1 0-0.2 0-0.1 0.1-0.2 0.1-0.3 0-0.1-0.1-0.1-0.1-0.2 0-0.1 0-0.2 0-0.3 0-0.2 0-0.4-0.1-0.5 -0.4-0.7-1.2-0.9-2-0.8 -0.2 0-0.3 0.1-0.4 0.2 -0.2 0.1-0.1 0.2-0.3 0.2 -0.1 0-0.2 0.1-0.2 0.2 0 0.1 0 0.1 0 0.2 0 0 0 0 0 0"
       class="a"
       id="path4005" />
    <path
       d="M0.5-56.3c0 0.1 0 0.1 0 0.2 -0.1 0.1-0.1 0.1-0.2 0.1 0 0.1-0.1 0.3-0.1 0.4 -0.2 0.1 0 0.2 0 0.4 0 0.1 0 0.1 0 0.2 0 0.1 0 0.3 0.1 0.4 0.1 0.2 0.3 0.4 0.4 0.5 0.2 0.1 0.4 0.6 0.6 0.6 0.2 0 0.4-0.1 0.5-0.1 0.2 0 0.4 0 0.6-0.1 0.2-0.1 0.1-0.3 0.3-0.4 0.1-0.1 0.3 0 0.4-0.1 0.2-0.1 0.3-0.3 0.4-0.5 0-0.1 0-0.1 0-0.2 0-0.1 0.1-0.2 0.1-0.3 0-0.1-0.1-0.1-0.1-0.2 0-0.1 0-0.2 0-0.3 0-0.2 0-0.4-0.1-0.5 -0.4-0.7-1.2-0.9-2-0.8 -0.2 0-0.3 0.1-0.4 0.2 -0.2 0.1-0.1 0.2-0.3 0.2 -0.1 0-0.2 0.1-0.2 0.2C0.5-56.4 0.5-56.4 0.5-56.3c0 0 0 0 0 0"
       class="a"
       id="path4007" />
    <path
       d="M69.4-48.7c0 0.1 0 0.1 0 0.2 -0.1 0.1-0.1 0.1-0.2 0.1 0 0.1-0.1 0.3-0.1 0.4 -0.2 0.1 0 0.2 0 0.4 0 0.1 0 0.1 0 0.2 0 0.1 0 0.3 0.1 0.4 0.1 0.2 0.3 0.4 0.4 0.5 0.2 0.1 0.4 0.6 0.6 0.6 0.2 0 0.4-0.1 0.5-0.1 0.2 0 0.4 0 0.6-0.1 0.2-0.1 0.1-0.3 0.3-0.4 0.1-0.1 0.3 0 0.4-0.1 0.2-0.1 0.3-0.3 0.4-0.5 0-0.1 0-0.1 0-0.2 0-0.1 0.1-0.2 0.1-0.3 0-0.1-0.1-0.1-0.1-0.2 0-0.1 0-0.2 0-0.3 0-0.2 0-0.4-0.1-0.5 -0.4-0.7-1.2-0.9-2-0.8 -0.2 0-0.3 0.1-0.4 0.2 -0.2 0.1-0.1 0.2-0.3 0.2 -0.1 0-0.2 0.1-0.2 0.2 0 0.1 0 0.1 0 0.2 0 0 0 0 0 0"
       class="a"
       id="path4009" />
    <path
       d="M61.8-48.7c0 0.1 0 0.1 0 0.2 -0.1 0.1-0.1 0.1-0.2 0.1 0 0.1-0.1 0.3-0.1 0.4 -0.2 0.1 0 0.2 0 0.4 0 0.1 0 0.1 0 0.2 0 0.1 0 0.3 0.1 0.4 0.1 0.2 0.3 0.4 0.4 0.5 0.2 0.1 0.4 0.6 0.6 0.6 0.2 0 0.4-0.1 0.5-0.1 0.2 0 0.4 0 0.6-0.1 0.2-0.1 0.1-0.3 0.3-0.4 0.1-0.1 0.3 0 0.4-0.1 0.2-0.1 0.3-0.3 0.4-0.5 0-0.1 0-0.1 0-0.2 0-0.1 0.1-0.2 0.1-0.3 0-0.1-0.1-0.1-0.1-0.2 0-0.1 0-0.2 0-0.3 0-0.2 0-0.4-0.1-0.5 -0.4-0.7-1.2-0.9-2-0.8 -0.2 0-0.3 0.1-0.4 0.2 -0.2 0.1-0.1 0.2-0.3 0.2 -0.1 0-0.2 0.1-0.2 0.2 0 0.1 0 0.1 0 0.2 0 0 0 0 0 0"
       class="a"
       id="path4011" />
    <path
       d="M54.1-48.7c0 0.1 0 0.1 0 0.2 -0.1 0.1-0.1 0.1-0.2 0.1 0 0.1-0.1 0.3-0.1 0.4 -0.2 0.1 0 0.2 0 0.4 0 0.1 0 0.1 0 0.2 0 0.1 0 0.3 0.1 0.4 0.1 0.2 0.3 0.4 0.4 0.5 0.2 0.1 0.4 0.6 0.6 0.6 0.2 0 0.4-0.1 0.5-0.1 0.2 0 0.4 0 0.6-0.1 0.2-0.1 0.1-0.3 0.3-0.4 0.1-0.1 0.3 0 0.4-0.1 0.2-0.1 0.3-0.3 0.4-0.5 0-0.1 0-0.1 0-0.2 0-0.1 0.1-0.2 0.1-0.3 0-0.1-0.1-0.1-0.1-0.2 0-0.1 0-0.2 0-0.3 0-0.2 0-0.4-0.1-0.5 -0.4-0.7-1.2-0.9-2-0.8 -0.2 0-0.3 0.1-0.4 0.2 -0.2 0.1-0.1 0.2-0.3 0.2 -0.1 0-0.2 0.1-0.2 0.2 0 0.1 0 0.1 0 0.2 0 0 0 0 0 0"
       class="a"
       id="path4013" />
    <path
       d="M46.5-48.7c0 0.1 0 0.1 0 0.2 -0.1 0.1-0.1 0.1-0.2 0.1 0 0.1-0.1 0.3-0.1 0.4 -0.2 0.1 0 0.2 0 0.4 0 0.1 0 0.1 0 0.2 0 0.1 0 0.3 0.1 0.4 0.1 0.2 0.3 0.4 0.4 0.5 0.2 0.1 0.4 0.6 0.6 0.6 0.2 0 0.4-0.1 0.5-0.1 0.2 0 0.4 0 0.6-0.1 0.2-0.1 0.1-0.3 0.3-0.4 0.1-0.1 0.3 0 0.4-0.1 0.2-0.1 0.3-0.3 0.4-0.5 0-0.1 0-0.1 0-0.2 0-0.1 0.1-0.2 0.1-0.3 0-0.1-0.1-0.1-0.1-0.2 0-0.1 0-0.2 0-0.3 0-0.2 0-0.4-0.1-0.5 -0.4-0.7-1.2-0.9-2-0.8 -0.2 0-0.3 0.1-0.4 0.2 -0.2 0.1-0.1 0.2-0.3 0.2 -0.1 0-0.2 0.1-0.2 0.2 0 0.1 0 0.1 0 0.2 0 0 0 0 0 0"
       class="a"
       id="path4015" />
    <path
       d="M38.8-48.7c0 0.1 0 0.1 0 0.2 -0.1 0.1-0.1 0.1-0.2 0.1 0 0.1-0.1 0.3-0.1 0.4 -0.2 0.1 0 0.2 0 0.4 0 0.1 0 0.1 0 0.2 0 0.1 0 0.3 0.1 0.4 0.1 0.2 0.3 0.4 0.4 0.5 0.2 0.1 0.4 0.6 0.6 0.6 0.2 0 0.4-0.1 0.5-0.1 0.2 0 0.4 0 0.6-0.1 0.2-0.1 0.1-0.3 0.3-0.4 0.1-0.1 0.3 0 0.4-0.1 0.2-0.1 0.3-0.3 0.4-0.5 0-0.1 0-0.1 0-0.2 0-0.1 0.1-0.2 0.1-0.3 0-0.1-0.1-0.1-0.1-0.2 0-0.1 0-0.2 0-0.3 0-0.2 0-0.4-0.1-0.5 -0.4-0.7-1.2-0.9-2-0.8 -0.2 0-0.3 0.1-0.4 0.2 -0.2 0.1-0.1 0.2-0.3 0.2 -0.1 0-0.2 0.1-0.2 0.2 0 0.1 0 0.1 0 0.2 0 0 0 0 0 0"
       class="a"
       id="path4017" />
    <path
       d="M31.1-48.7c0 0.1 0 0.1 0 0.2 -0.1 0.1-0.1 0.1-0.2 0.1 0 0.1-0.1 0.3-0.1 0.4 -0.2 0.1 0 0.2 0 0.4 0 0.1 0 0.1 0 0.2 0 0.1 0 0.3 0.1 0.4 0.1 0.2 0.3 0.4 0.4 0.5 0.2 0.1 0.4 0.6 0.6 0.6 0.2 0 0.4-0.1 0.5-0.1 0.2 0 0.4 0 0.6-0.1 0.2-0.1 0.1-0.3 0.3-0.4 0.1-0.1 0.3 0 0.4-0.1 0.2-0.1 0.3-0.3 0.4-0.5 0-0.1 0-0.1 0-0.2 0-0.1 0.1-0.2 0.1-0.3 0-0.1-0.1-0.1-0.1-0.2 0-0.1 0-0.2 0-0.3 0-0.2 0-0.4-0.1-0.5 -0.4-0.7-1.2-0.9-2-0.8 -0.2 0-0.3 0.1-0.4 0.2 -0.2 0.1-0.1 0.2-0.3 0.2 -0.1 0-0.2 0.1-0.2 0.2 0 0.1 0 0.1 0 0.2 0 0 0 0 0 0"
       class="a"
       id="path4019" />
    <path
       d="M23.5-48.7c0 0.1 0 0.1 0 0.2 -0.1 0.1-0.1 0.1-0.2 0.1 0 0.1-0.1 0.3-0.1 0.4 -0.2 0.1 0 0.2 0 0.4 0 0.1 0 0.1 0 0.2 0 0.1 0 0.3 0.1 0.4 0.1 0.2 0.3 0.4 0.4 0.5 0.2 0.1 0.4 0.6 0.6 0.6 0.2 0 0.4-0.1 0.5-0.1 0.2 0 0.4 0 0.6-0.1 0.2-0.1 0.1-0.3 0.3-0.4 0.1-0.1 0.3 0 0.4-0.1 0.2-0.1 0.3-0.3 0.4-0.5 0-0.1 0-0.1 0-0.2 0-0.1 0.1-0.2 0.1-0.3 0-0.1-0.1-0.1-0.1-0.2 0-0.1 0-0.2 0-0.3 0-0.2 0-0.4-0.1-0.5 -0.4-0.7-1.2-0.9-2-0.8 -0.2 0-0.3 0.1-0.4 0.2 -0.2 0.1-0.1 0.2-0.3 0.2 -0.1 0-0.2 0.1-0.2 0.2 0 0.1 0 0.1 0 0.2 0 0 0 0 0 0"
       class="a"
       id="path4021" />
    <path
       d="M15.8-48.7c0 0.1 0 0.1 0 0.2 -0.1 0.1-0.1 0.1-0.2 0.1 0 0.1-0.1 0.3-0.1 0.4 -0.2 0.1 0 0.2 0 0.4 0 0.1 0 0.1 0 0.2 0 0.1 0 0.3 0.1 0.4 0.1 0.2 0.3 0.4 0.4 0.5 0.2 0.1 0.4 0.6 0.6 0.6 0.2 0 0.4-0.1 0.5-0.1 0.2 0 0.4 0 0.6-0.1 0.2-0.1 0.1-0.3 0.3-0.4 0.1-0.1 0.3 0 0.4-0.1 0.2-0.1 0.3-0.3 0.4-0.5 0-0.1 0-0.1 0-0.2 0-0.1 0.1-0.2 0.1-0.3 0-0.1-0.1-0.1-0.1-0.2 0-0.1 0-0.2 0-0.3 0-0.2 0-0.4-0.1-0.5 -0.4-0.7-1.2-0.9-2-0.8 -0.2 0-0.3 0.1-0.4 0.2 -0.2 0.1-0.1 0.2-0.3 0.2 -0.1 0-0.2 0.1-0.2 0.2 0 0.1 0 0.1 0 0.2 0 0 0 0 0 0"
       class="a"
       id="path4023" />
    <path
       d="M8.2-48.7c0 0.1 0 0.1 0 0.2 -0.1 0.1-0.1 0.1-0.2 0.1 0 0.1-0.1 0.3-0.1 0.4 -0.2 0.1 0 0.2 0 0.4 0 0.1 0 0.1 0 0.2 0 0.1 0 0.3 0.1 0.4 0.1 0.2 0.3 0.4 0.4 0.5 0.2 0.1 0.4 0.6 0.6 0.6 0.2 0 0.4-0.1 0.5-0.1 0.2 0 0.4 0 0.6-0.1 0.2-0.1 0.1-0.3 0.3-0.4 0.1-0.1 0.3 0 0.4-0.1 0.2-0.1 0.3-0.3 0.4-0.5 0-0.1 0-0.1 0-0.2 0-0.1 0.1-0.2 0.1-0.3 0-0.1-0.1-0.1-0.1-0.2 0-0.1 0-0.2 0-0.3 0-0.2 0-0.4-0.1-0.5 -0.4-0.7-1.2-0.9-2-0.8 -0.2 0-0.3 0.1-0.4 0.2 -0.2 0.1-0.1 0.2-0.3 0.2 -0.1 0-0.2 0.1-0.2 0.2 0 0.1 0 0.1 0 0.2 0 0 0 0 0 0"
       class="a"
       id="path4025" />
    <path
       d="M0.5-48.7c0 0.1 0 0.1 0 0.2 -0.1 0.1-0.1 0.1-0.2 0.1 0 0.1-0.1 0.3-0.1 0.4 -0.2 0.1 0 0.2 0 0.4 0 0.1 0 0.1 0 0.2 0 0.1 0 0.3 0.1 0.4 0.1 0.2 0.3 0.4 0.4 0.5 0.2 0.1 0.4 0.6 0.6 0.6 0.2 0 0.4-0.1 0.5-0.1 0.2 0 0.4 0 0.6-0.1 0.2-0.1 0.1-0.3 0.3-0.4 0.1-0.1 0.3 0 0.4-0.1 0.2-0.1 0.3-0.3 0.4-0.5 0-0.1 0-0.1 0-0.2 0-0.1 0.1-0.2 0.1-0.3 0-0.1-0.1-0.1-0.1-0.2 0-0.1 0-0.2 0-0.3 0-0.2 0-0.4-0.1-0.5 -0.4-0.7-1.2-0.9-2-0.8 -0.2 0-0.3 0.1-0.4 0.2 -0.2 0.1-0.1 0.2-0.3 0.2 -0.1 0-0.2 0.1-0.2 0.2 0 0.1 0 0.1 0 0.2 0 0 0 0 0 0"
       class="a"
       id="path4027" />
    <path
       d="M69.4-41c0 0.1 0 0.1 0 0.2 -0.1 0.1-0.1 0.1-0.2 0.1 0 0.1-0.1 0.3-0.1 0.4 -0.2 0.1 0 0.2 0 0.4 0 0.1 0 0.1 0 0.2 0 0.1 0 0.3 0.1 0.4 0.1 0.2 0.3 0.4 0.4 0.5 0.2 0.1 0.4 0.6 0.6 0.6 0.2 0 0.4-0.1 0.5-0.1 0.2 0 0.4 0 0.6-0.1 0.2-0.1 0.1-0.3 0.3-0.4 0.1-0.1 0.3 0 0.4-0.1 0.2-0.1 0.3-0.3 0.4-0.5 0-0.1 0-0.1 0-0.2 0-0.1 0.1-0.2 0.1-0.3 0-0.1-0.1-0.1-0.1-0.2 0-0.1 0-0.2 0-0.3 0-0.2 0-0.4-0.1-0.5 -0.4-0.7-1.2-0.9-2-0.8 -0.2 0-0.3 0.1-0.4 0.2 -0.2 0.1-0.1 0.2-0.3 0.2 -0.1 0-0.2 0.1-0.2 0.2 0 0.1 0 0.1 0 0.2 0 0 0 0 0 0"
       class="a"
       id="path4029" />
    <path
       d="M61.8-41c0 0.1 0 0.1 0 0.2 -0.1 0.1-0.1 0.1-0.2 0.1 0 0.1-0.1 0.3-0.1 0.4 -0.2 0.1 0 0.2 0 0.4 0 0.1 0 0.1 0 0.2 0 0.1 0 0.3 0.1 0.4 0.1 0.2 0.3 0.4 0.4 0.5 0.2 0.1 0.4 0.6 0.6 0.6 0.2 0 0.4-0.1 0.5-0.1 0.2 0 0.4 0 0.6-0.1 0.2-0.1 0.1-0.3 0.3-0.4 0.1-0.1 0.3 0 0.4-0.1 0.2-0.1 0.3-0.3 0.4-0.5 0-0.1 0-0.1 0-0.2 0-0.1 0.1-0.2 0.1-0.3 0-0.1-0.1-0.1-0.1-0.2 0-0.1 0-0.2 0-0.3 0-0.2 0-0.4-0.1-0.5 -0.4-0.7-1.2-0.9-2-0.8 -0.2 0-0.3 0.1-0.4 0.2 -0.2 0.1-0.1 0.2-0.3 0.2 -0.1 0-0.2 0.1-0.2 0.2 0 0.1 0 0.1 0 0.2 0 0 0 0 0 0"
       class="a"
       id="path4031" />
    <path
       d="M54.1-41c0 0.1 0 0.1 0 0.2 -0.1 0.1-0.1 0.1-0.2 0.1 0 0.1-0.1 0.3-0.1 0.4 -0.2 0.1 0 0.2 0 0.4 0 0.1 0 0.1 0 0.2 0 0.1 0 0.3 0.1 0.4 0.1 0.2 0.3 0.4 0.4 0.5 0.2 0.1 0.4 0.6 0.6 0.6 0.2 0 0.4-0.1 0.5-0.1 0.2 0 0.4 0 0.6-0.1 0.2-0.1 0.1-0.3 0.3-0.4 0.1-0.1 0.3 0 0.4-0.1 0.2-0.1 0.3-0.3 0.4-0.5 0-0.1 0-0.1 0-0.2 0-0.1 0.1-0.2 0.1-0.3 0-0.1-0.1-0.1-0.1-0.2 0-0.1 0-0.2 0-0.3 0-0.2 0-0.4-0.1-0.5 -0.4-0.7-1.2-0.9-2-0.8 -0.2 0-0.3 0.1-0.4 0.2 -0.2 0.1-0.1 0.2-0.3 0.2 -0.1 0-0.2 0.1-0.2 0.2 0 0.1 0 0.1 0 0.2 0 0 0 0 0 0"
       class="a"
       id="path4033" />
    <path
       d="M46.5-41c0 0.1 0 0.1 0 0.2 -0.1 0.1-0.1 0.1-0.2 0.1 0 0.1-0.1 0.3-0.1 0.4 -0.2 0.1 0 0.2 0 0.4 0 0.1 0 0.1 0 0.2 0 0.1 0 0.3 0.1 0.4 0.1 0.2 0.3 0.4 0.4 0.5 0.2 0.1 0.4 0.6 0.6 0.6 0.2 0 0.4-0.1 0.5-0.1 0.2 0 0.4 0 0.6-0.1 0.2-0.1 0.1-0.3 0.3-0.4 0.1-0.1 0.3 0 0.4-0.1 0.2-0.1 0.3-0.3 0.4-0.5 0-0.1 0-0.1 0-0.2 0-0.1 0.1-0.2 0.1-0.3 0-0.1-0.1-0.1-0.1-0.2 0-0.1 0-0.2 0-0.3 0-0.2 0-0.4-0.1-0.5 -0.4-0.7-1.2-0.9-2-0.8 -0.2 0-0.3 0.1-0.4 0.2 -0.2 0.1-0.1 0.2-0.3 0.2 -0.1 0-0.2 0.1-0.2 0.2 0 0.1 0 0.1 0 0.2 0 0 0 0 0 0"
       class="a"
       id="path4035" />
    <path
       d="M38.8-41c0 0.1 0 0.1 0 0.2 -0.1 0.1-0.1 0.1-0.2 0.1 0 0.1-0.1 0.3-0.1 0.4 -0.2 0.1 0 0.2 0 0.4 0 0.1 0 0.1 0 0.2 0 0.1 0 0.3 0.1 0.4 0.1 0.2 0.3 0.4 0.4 0.5 0.2 0.1 0.4 0.6 0.6 0.6 0.2 0 0.4-0.1 0.5-0.1 0.2 0 0.4 0 0.6-0.1 0.2-0.1 0.1-0.3 0.3-0.4 0.1-0.1 0.3 0 0.4-0.1 0.2-0.1 0.3-0.3 0.4-0.5 0-0.1 0-0.1 0-0.2 0-0.1 0.1-0.2 0.1-0.3 0-0.1-0.1-0.1-0.1-0.2 0-0.1 0-0.2 0-0.3 0-0.2 0-0.4-0.1-0.5 -0.4-0.7-1.2-0.9-2-0.8 -0.2 0-0.3 0.1-0.4 0.2 -0.2 0.1-0.1 0.2-0.3 0.2 -0.1 0-0.2 0.1-0.2 0.2 0 0.1 0 0.1 0 0.2 0 0 0 0 0 0"
       class="a"
       id="path4037" />
    <path
       d="M31.1-41c0 0.1 0 0.1 0 0.2 -0.1 0.1-0.1 0.1-0.2 0.1 0 0.1-0.1 0.3-0.1 0.4 -0.2 0.1 0 0.2 0 0.4 0 0.1 0 0.1 0 0.2 0 0.1 0 0.3 0.1 0.4 0.1 0.2 0.3 0.4 0.4 0.5 0.2 0.1 0.4 0.6 0.6 0.6 0.2 0 0.4-0.1 0.5-0.1 0.2 0 0.4 0 0.6-0.1 0.2-0.1 0.1-0.3 0.3-0.4 0.1-0.1 0.3 0 0.4-0.1 0.2-0.1 0.3-0.3 0.4-0.5 0-0.1 0-0.1 0-0.2 0-0.1 0.1-0.2 0.1-0.3 0-0.1-0.1-0.1-0.1-0.2 0-0.1 0-0.2 0-0.3 0-0.2 0-0.4-0.1-0.5 -0.4-0.7-1.2-0.9-2-0.8 -0.2 0-0.3 0.1-0.4 0.2 -0.2 0.1-0.1 0.2-0.3 0.2 -0.1 0-0.2 0.1-0.2 0.2 0 0.1 0 0.1 0 0.2 0 0 0 0 0 0"
       class="a"
       id="path4039" />
    <path
       d="M23.5-41c0 0.1 0 0.1 0 0.2 -0.1 0.1-0.1 0.1-0.2 0.1 0 0.1-0.1 0.3-0.1 0.4 -0.2 0.1 0 0.2 0 0.4 0 0.1 0 0.1 0 0.2 0 0.1 0 0.3 0.1 0.4 0.1 0.2 0.3 0.4 0.4 0.5 0.2 0.1 0.4 0.6 0.6 0.6 0.2 0 0.4-0.1 0.5-0.1 0.2 0 0.4 0 0.6-0.1 0.2-0.1 0.1-0.3 0.3-0.4 0.1-0.1 0.3 0 0.4-0.1 0.2-0.1 0.3-0.3 0.4-0.5 0-0.1 0-0.1 0-0.2 0-0.1 0.1-0.2 0.1-0.3 0-0.1-0.1-0.1-0.1-0.2 0-0.1 0-0.2 0-0.3 0-0.2 0-0.4-0.1-0.5 -0.4-0.7-1.2-0.9-2-0.8 -0.2 0-0.3 0.1-0.4 0.2 -0.2 0.1-0.1 0.2-0.3 0.2 -0.1 0-0.2 0.1-0.2 0.2 0 0.1 0 0.1 0 0.2 0 0 0 0 0 0"
       class="a"
       id="path4041" />
    <path
       d="M15.8-41c0 0.1 0 0.1 0 0.2 -0.1 0.1-0.1 0.1-0.2 0.1 0 0.1-0.1 0.3-0.1 0.4 -0.2 0.1 0 0.2 0 0.4 0 0.1 0 0.1 0 0.2 0 0.1 0 0.3 0.1 0.4 0.1 0.2 0.3 0.4 0.4 0.5 0.2 0.1 0.4 0.6 0.6 0.6 0.2 0 0.4-0.1 0.5-0.1 0.2 0 0.4 0 0.6-0.1 0.2-0.1 0.1-0.3 0.3-0.4 0.1-0.1 0.3 0 0.4-0.1 0.2-0.1 0.3-0.3 0.4-0.5 0-0.1 0-0.1 0-0.2 0-0.1 0.1-0.2 0.1-0.3 0-0.1-0.1-0.1-0.1-0.2 0-0.1 0-0.2 0-0.3 0-0.2 0-0.4-0.1-0.5 -0.4-0.7-1.2-0.9-2-0.8 -0.2 0-0.3 0.1-0.4 0.2 -0.2 0.1-0.1 0.2-0.3 0.2 -0.1 0-0.2 0.1-0.2 0.2 0 0.1 0 0.1 0 0.2 0 0 0 0 0 0"
       class="a"
       id="path4043" />
    <path
       d="M8.2-41c0 0.1 0 0.1 0 0.2 -0.1 0.1-0.1 0.1-0.2 0.1 0 0.1-0.1 0.3-0.1 0.4 -0.2 0.1 0 0.2 0 0.4 0 0.1 0 0.1 0 0.2 0 0.1 0 0.3 0.1 0.4 0.1 0.2 0.3 0.4 0.4 0.5 0.2 0.1 0.4 0.6 0.6 0.6 0.2 0 0.4-0.1 0.5-0.1 0.2 0 0.4 0 0.6-0.1 0.2-0.1 0.1-0.3 0.3-0.4 0.1-0.1 0.3 0 0.4-0.1 0.2-0.1 0.3-0.3 0.4-0.5 0-0.1 0-0.1 0-0.2 0-0.1 0.1-0.2 0.1-0.3 0-0.1-0.1-0.1-0.1-0.2 0-0.1 0-0.2 0-0.3 0-0.2 0-0.4-0.1-0.5 -0.4-0.7-1.2-0.9-2-0.8 -0.2 0-0.3 0.1-0.4 0.2 -0.2 0.1-0.1 0.2-0.3 0.2 -0.1 0-0.2 0.1-0.2 0.2 0 0.1 0 0.1 0 0.2C8.2-41 8.1-41 8.1-41"
       class="a"
       id="path4045" />
    <path
       d="M0.5-41c0 0.1 0 0.1 0 0.2 -0.1 0.1-0.1 0.1-0.2 0.1 0 0.1-0.1 0.3-0.1 0.4 -0.2 0.1 0 0.2 0 0.4 0 0.1 0 0.1 0 0.2 0 0.1 0 0.3 0.1 0.4 0.1 0.2 0.3 0.4 0.4 0.5 0.2 0.1 0.4 0.6 0.6 0.6 0.2 0 0.4-0.1 0.5-0.1 0.2 0 0.4 0 0.6-0.1 0.2-0.1 0.1-0.3 0.3-0.4 0.1-0.1 0.3 0 0.4-0.1 0.2-0.1 0.3-0.3 0.4-0.5 0-0.1 0-0.1 0-0.2 0-0.1 0.1-0.2 0.1-0.3 0-0.1-0.1-0.1-0.1-0.2 0-0.1 0-0.2 0-0.3 0-0.2 0-0.4-0.1-0.5 -0.4-0.7-1.2-0.9-2-0.8 -0.2 0-0.3 0.1-0.4 0.2 -0.2 0.1-0.1 0.2-0.3 0.2 -0.1 0-0.2 0.1-0.2 0.2 0 0.1 0 0.1 0 0.2 0 0 0 0 0 0"
       class="a"
       id="path4047" />
    <path
       d="M69.4-33.4c0 0.1 0 0.1 0 0.2 -0.1 0.1-0.1 0.1-0.2 0.1 0 0.1-0.1 0.3-0.1 0.4 -0.2 0.1 0 0.2 0 0.4 0 0.1 0 0.1 0 0.2 0 0.1 0 0.3 0.1 0.4 0.1 0.2 0.3 0.4 0.4 0.5 0.2 0.1 0.4 0.6 0.6 0.6 0.2 0 0.4-0.1 0.5-0.1 0.2 0 0.4 0 0.6-0.1 0.2-0.1 0.1-0.3 0.3-0.4 0.1-0.1 0.3 0 0.4-0.1 0.2-0.1 0.3-0.3 0.4-0.5 0-0.1 0-0.1 0-0.2 0-0.1 0.1-0.2 0.1-0.3 0-0.1-0.1-0.1-0.1-0.2 0-0.1 0-0.2 0-0.3 0-0.2 0-0.4-0.1-0.5 -0.4-0.7-1.2-0.9-2-0.8 -0.2 0-0.3 0.1-0.4 0.2 -0.2 0.1-0.1 0.2-0.3 0.2 -0.1 0-0.2 0.1-0.2 0.2 0 0.1 0 0.1 0 0.2 0 0 0 0 0 0"
       class="a"
       id="path4049" />
    <path
       d="M61.8-33.4c0 0.1 0 0.1 0 0.2 -0.1 0.1-0.1 0.1-0.2 0.1 0 0.1-0.1 0.3-0.1 0.4 -0.2 0.1 0 0.2 0 0.4 0 0.1 0 0.1 0 0.2 0 0.1 0 0.3 0.1 0.4 0.1 0.2 0.3 0.4 0.4 0.5 0.2 0.1 0.4 0.6 0.6 0.6 0.2 0 0.4-0.1 0.5-0.1 0.2 0 0.4 0 0.6-0.1 0.2-0.1 0.1-0.3 0.3-0.4 0.1-0.1 0.3 0 0.4-0.1 0.2-0.1 0.3-0.3 0.4-0.5 0-0.1 0-0.1 0-0.2 0-0.1 0.1-0.2 0.1-0.3 0-0.1-0.1-0.1-0.1-0.2 0-0.1 0-0.2 0-0.3 0-0.2 0-0.4-0.1-0.5 -0.4-0.7-1.2-0.9-2-0.8 -0.2 0-0.3 0.1-0.4 0.2 -0.2 0.1-0.1 0.2-0.3 0.2 -0.1 0-0.2 0.1-0.2 0.2 0 0.1 0 0.1 0 0.2 0 0 0 0 0 0"
       class="a"
       id="path4051" />
    <path
       d="M54.1-33.4c0 0.1 0 0.1 0 0.2 -0.1 0.1-0.1 0.1-0.2 0.1 0 0.1-0.1 0.3-0.1 0.4 -0.2 0.1 0 0.2 0 0.4 0 0.1 0 0.1 0 0.2 0 0.1 0 0.3 0.1 0.4 0.1 0.2 0.3 0.4 0.4 0.5 0.2 0.1 0.4 0.6 0.6 0.6 0.2 0 0.4-0.1 0.5-0.1 0.2 0 0.4 0 0.6-0.1 0.2-0.1 0.1-0.3 0.3-0.4 0.1-0.1 0.3 0 0.4-0.1 0.2-0.1 0.3-0.3 0.4-0.5 0-0.1 0-0.1 0-0.2 0-0.1 0.1-0.2 0.1-0.3 0-0.1-0.1-0.1-0.1-0.2 0-0.1 0-0.2 0-0.3 0-0.2 0-0.4-0.1-0.5 -0.4-0.7-1.2-0.9-2-0.8 -0.2 0-0.3 0.1-0.4 0.2 -0.2 0.1-0.1 0.2-0.3 0.2 -0.1 0-0.2 0.1-0.2 0.2 0 0.1 0 0.1 0 0.2 0 0 0 0 0 0"
       class="a"
       id="path4053" />
    <path
       d="M46.5-33.4c0 0.1 0 0.1 0 0.2 -0.1 0.1-0.1 0.1-0.2 0.1 0 0.1-0.1 0.3-0.1 0.4 -0.2 0.1 0 0.2 0 0.4 0 0.1 0 0.1 0 0.2 0 0.1 0 0.3 0.1 0.4 0.1 0.2 0.3 0.4 0.4 0.5 0.2 0.1 0.4 0.6 0.6 0.6 0.2 0 0.4-0.1 0.5-0.1 0.2 0 0.4 0 0.6-0.1 0.2-0.1 0.1-0.3 0.3-0.4 0.1-0.1 0.3 0 0.4-0.1 0.2-0.1 0.3-0.3 0.4-0.5 0-0.1 0-0.1 0-0.2 0-0.1 0.1-0.2 0.1-0.3 0-0.1-0.1-0.1-0.1-0.2 0-0.1 0-0.2 0-0.3 0-0.2 0-0.4-0.1-0.5 -0.4-0.7-1.2-0.9-2-0.8 -0.2 0-0.3 0.1-0.4 0.2 -0.2 0.1-0.1 0.2-0.3 0.2 -0.1 0-0.2 0.1-0.2 0.2 0 0.1 0 0.1 0 0.2 0 0 0 0 0 0"
       class="a"
       id="path4055" />
    <path
       d="M38.8-33.4c0 0.1 0 0.1 0 0.2 -0.1 0.1-0.1 0.1-0.2 0.1 0 0.1-0.1 0.3-0.1 0.4 -0.2 0.1 0 0.2 0 0.4 0 0.1 0 0.1 0 0.2 0 0.1 0 0.3 0.1 0.4 0.1 0.2 0.3 0.4 0.4 0.5 0.2 0.1 0.4 0.6 0.6 0.6 0.2 0 0.4-0.1 0.5-0.1 0.2 0 0.4 0 0.6-0.1 0.2-0.1 0.1-0.3 0.3-0.4 0.1-0.1 0.3 0 0.4-0.1 0.2-0.1 0.3-0.3 0.4-0.5 0-0.1 0-0.1 0-0.2 0-0.1 0.1-0.2 0.1-0.3 0-0.1-0.1-0.1-0.1-0.2 0-0.1 0-0.2 0-0.3 0-0.2 0-0.4-0.1-0.5 -0.4-0.7-1.2-0.9-2-0.8 -0.2 0-0.3 0.1-0.4 0.2 -0.2 0.1-0.1 0.2-0.3 0.2 -0.1 0-0.2 0.1-0.2 0.2 0 0.1 0 0.1 0 0.2 0 0 0 0 0 0"
       class="a"
       id="path4057" />
    <path
       d="M31.1-33.4c0 0.1 0 0.1 0 0.2 -0.1 0.1-0.1 0.1-0.2 0.1 0 0.1-0.1 0.3-0.1 0.4 -0.2 0.1 0 0.2 0 0.4 0 0.1 0 0.1 0 0.2 0 0.1 0 0.3 0.1 0.4 0.1 0.2 0.3 0.4 0.4 0.5 0.2 0.1 0.4 0.6 0.6 0.6 0.2 0 0.4-0.1 0.5-0.1 0.2 0 0.4 0 0.6-0.1 0.2-0.1 0.1-0.3 0.3-0.4 0.1-0.1 0.3 0 0.4-0.1 0.2-0.1 0.3-0.3 0.4-0.5 0-0.1 0-0.1 0-0.2 0-0.1 0.1-0.2 0.1-0.3 0-0.1-0.1-0.1-0.1-0.2 0-0.1 0-0.2 0-0.3 0-0.2 0-0.4-0.1-0.5 -0.4-0.7-1.2-0.9-2-0.8 -0.2 0-0.3 0.1-0.4 0.2 -0.2 0.1-0.1 0.2-0.3 0.2 -0.1 0-0.2 0.1-0.2 0.2 0 0.1 0 0.1 0 0.2 0 0 0 0 0 0"
       class="a"
       id="path4059" />
    <path
       d="M23.5-33.4c0 0.1 0 0.1 0 0.2 -0.1 0.1-0.1 0.1-0.2 0.1 0 0.1-0.1 0.3-0.1 0.4 -0.2 0.1 0 0.2 0 0.4 0 0.1 0 0.1 0 0.2 0 0.1 0 0.3 0.1 0.4 0.1 0.2 0.3 0.4 0.4 0.5 0.2 0.1 0.4 0.6 0.6 0.6 0.2 0 0.4-0.1 0.5-0.1 0.2 0 0.4 0 0.6-0.1 0.2-0.1 0.1-0.3 0.3-0.4 0.1-0.1 0.3 0 0.4-0.1 0.2-0.1 0.3-0.3 0.4-0.5 0-0.1 0-0.1 0-0.2 0-0.1 0.1-0.2 0.1-0.3 0-0.1-0.1-0.1-0.1-0.2 0-0.1 0-0.2 0-0.3 0-0.2 0-0.4-0.1-0.5 -0.4-0.7-1.2-0.9-2-0.8 -0.2 0-0.3 0.1-0.4 0.2 -0.2 0.1-0.1 0.2-0.3 0.2 -0.1 0-0.2 0.1-0.2 0.2 0 0.1 0 0.1 0 0.2 0 0 0 0 0 0"
       class="a"
       id="path4061" />
    <path
       d="M15.8-33.4c0 0.1 0 0.1 0 0.2 -0.1 0.1-0.1 0.1-0.2 0.1 0 0.1-0.1 0.3-0.1 0.4 -0.2 0.1 0 0.2 0 0.4 0 0.1 0 0.1 0 0.2 0 0.1 0 0.3 0.1 0.4 0.1 0.2 0.3 0.4 0.4 0.5 0.2 0.1 0.4 0.6 0.6 0.6 0.2 0 0.4-0.1 0.5-0.1 0.2 0 0.4 0 0.6-0.1 0.2-0.1 0.1-0.3 0.3-0.4 0.1-0.1 0.3 0 0.4-0.1 0.2-0.1 0.3-0.3 0.4-0.5 0-0.1 0-0.1 0-0.2 0-0.1 0.1-0.2 0.1-0.3 0-0.1-0.1-0.1-0.1-0.2 0-0.1 0-0.2 0-0.3 0-0.2 0-0.4-0.1-0.5 -0.4-0.7-1.2-0.9-2-0.8 -0.2 0-0.3 0.1-0.4 0.2 -0.2 0.1-0.1 0.2-0.3 0.2 -0.1 0-0.2 0.1-0.2 0.2 0 0.1 0 0.1 0 0.2 0 0 0 0 0 0"
       class="a"
       id="path4063" />
    <path
       d="M8.2-33.4c0 0.1 0 0.1 0 0.2 -0.1 0.1-0.1 0.1-0.2 0.1 0 0.1-0.1 0.3-0.1 0.4 -0.2 0.1 0 0.2 0 0.4 0 0.1 0 0.1 0 0.2 0 0.1 0 0.3 0.1 0.4 0.1 0.2 0.3 0.4 0.4 0.5 0.2 0.1 0.4 0.6 0.6 0.6 0.2 0 0.4-0.1 0.5-0.1 0.2 0 0.4 0 0.6-0.1 0.2-0.1 0.1-0.3 0.3-0.4 0.1-0.1 0.3 0 0.4-0.1 0.2-0.1 0.3-0.3 0.4-0.5 0-0.1 0-0.1 0-0.2 0-0.1 0.1-0.2 0.1-0.3 0-0.1-0.1-0.1-0.1-0.2 0-0.1 0-0.2 0-0.3 0-0.2 0-0.4-0.1-0.5 -0.4-0.7-1.2-0.9-2-0.8 -0.2 0-0.3 0.1-0.4 0.2 -0.2 0.1-0.1 0.2-0.3 0.2 -0.1 0-0.2 0.1-0.2 0.2 0 0.1 0 0.1 0 0.2 0 0 0 0 0 0"
       class="a"
       id="path4065" />
    <path
       d="M0.5-33.4c0 0.1 0 0.1 0 0.2 -0.1 0.1-0.1 0.1-0.2 0.1 0 0.1-0.1 0.3-0.1 0.4 -0.2 0.1 0 0.2 0 0.4 0 0.1 0 0.1 0 0.2 0 0.1 0 0.3 0.1 0.4 0.1 0.2 0.3 0.4 0.4 0.5 0.2 0.1 0.4 0.6 0.6 0.6 0.2 0 0.4-0.1 0.5-0.1 0.2 0 0.4 0 0.6-0.1 0.2-0.1 0.1-0.3 0.3-0.4 0.1-0.1 0.3 0 0.4-0.1 0.2-0.1 0.3-0.3 0.4-0.5 0-0.1 0-0.1 0-0.2 0-0.1 0.1-0.2 0.1-0.3 0-0.1-0.1-0.1-0.1-0.2 0-0.1 0-0.2 0-0.3 0-0.2 0-0.4-0.1-0.5 -0.4-0.7-1.2-0.9-2-0.8 -0.2 0-0.3 0.1-0.4 0.2 -0.2 0.1-0.1 0.2-0.3 0.2 -0.1 0-0.2 0.1-0.2 0.2C0.5-33.4 0.5-33.5 0.5-33.4c0 0 0 0 0 0"
       class="a"
       id="path4067" />
    <path
       d="M69.4-25.7c0 0.1 0 0.1 0 0.2 -0.1 0.1-0.1 0.1-0.2 0.1 0 0.1-0.1 0.3-0.1 0.4 -0.2 0.1 0 0.2 0 0.4 0 0.1 0 0.1 0 0.2 0 0.1 0 0.3 0.1 0.4 0.1 0.2 0.3 0.4 0.4 0.5 0.2 0.1 0.4 0.6 0.6 0.6 0.2 0 0.4-0.1 0.5-0.1 0.2 0 0.4 0 0.6-0.1 0.2-0.1 0.1-0.3 0.3-0.4 0.1-0.1 0.3 0 0.4-0.1 0.2-0.1 0.3-0.3 0.4-0.5 0-0.1 0-0.1 0-0.2 0-0.1 0.1-0.2 0.1-0.3 0-0.1-0.1-0.1-0.1-0.2 0-0.1 0-0.2 0-0.3 0-0.2 0-0.4-0.1-0.5 -0.4-0.7-1.2-0.9-2-0.8 -0.2 0-0.3 0.1-0.4 0.2 -0.2 0.1-0.1 0.2-0.3 0.2 -0.1 0-0.2 0.1-0.2 0.2 0 0.1 0 0.1 0 0.2 0 0 0 0 0 0"
       class="a"
       id="path4069" />
    <path
       d="M61.8-25.7c0 0.1 0 0.1 0 0.2 -0.1 0.1-0.1 0.1-0.2 0.1 0 0.1-0.1 0.3-0.1 0.4 -0.2 0.1 0 0.2 0 0.4 0 0.1 0 0.1 0 0.2 0 0.1 0 0.3 0.1 0.4 0.1 0.2 0.3 0.4 0.4 0.5 0.2 0.1 0.4 0.6 0.6 0.6 0.2 0 0.4-0.1 0.5-0.1 0.2 0 0.4 0 0.6-0.1 0.2-0.1 0.1-0.3 0.3-0.4 0.1-0.1 0.3 0 0.4-0.1 0.2-0.1 0.3-0.3 0.4-0.5 0-0.1 0-0.1 0-0.2 0-0.1 0.1-0.2 0.1-0.3 0-0.1-0.1-0.1-0.1-0.2 0-0.1 0-0.2 0-0.3 0-0.2 0-0.4-0.1-0.5 -0.4-0.7-1.2-0.9-2-0.8 -0.2 0-0.3 0.1-0.4 0.2 -0.2 0.1-0.1 0.2-0.3 0.2 -0.1 0-0.2 0.1-0.2 0.2 0 0.1 0 0.1 0 0.2 0 0 0 0 0 0"
       class="a"
       id="path4071" />
    <path
       d="M54.1-25.7c0 0.1 0 0.1 0 0.2 -0.1 0.1-0.1 0.1-0.2 0.1 0 0.1-0.1 0.3-0.1 0.4 -0.2 0.1 0 0.2 0 0.4 0 0.1 0 0.1 0 0.2 0 0.1 0 0.3 0.1 0.4 0.1 0.2 0.3 0.4 0.4 0.5 0.2 0.1 0.4 0.6 0.6 0.6 0.2 0 0.4-0.1 0.5-0.1 0.2 0 0.4 0 0.6-0.1 0.2-0.1 0.1-0.3 0.3-0.4 0.1-0.1 0.3 0 0.4-0.1 0.2-0.1 0.3-0.3 0.4-0.5 0-0.1 0-0.1 0-0.2 0-0.1 0.1-0.2 0.1-0.3 0-0.1-0.1-0.1-0.1-0.2 0-0.1 0-0.2 0-0.3 0-0.2 0-0.4-0.1-0.5 -0.4-0.7-1.2-0.9-2-0.8 -0.2 0-0.3 0.1-0.4 0.2 -0.2 0.1-0.1 0.2-0.3 0.2 -0.1 0-0.2 0.1-0.2 0.2 0 0.1 0 0.1 0 0.2 0 0 0 0 0 0"
       class="a"
       id="path4073" />
    <path
       d="M46.5-25.7c0 0.1 0 0.1 0 0.2 -0.1 0.1-0.1 0.1-0.2 0.1 0 0.1-0.1 0.3-0.1 0.4 -0.2 0.1 0 0.2 0 0.4 0 0.1 0 0.1 0 0.2 0 0.1 0 0.3 0.1 0.4 0.1 0.2 0.3 0.4 0.4 0.5 0.2 0.1 0.4 0.6 0.6 0.6 0.2 0 0.4-0.1 0.5-0.1 0.2 0 0.4 0 0.6-0.1 0.2-0.1 0.1-0.3 0.3-0.4 0.1-0.1 0.3 0 0.4-0.1 0.2-0.1 0.3-0.3 0.4-0.5 0-0.1 0-0.1 0-0.2 0-0.1 0.1-0.2 0.1-0.3 0-0.1-0.1-0.1-0.1-0.2 0-0.1 0-0.2 0-0.3 0-0.2 0-0.4-0.1-0.5 -0.4-0.7-1.2-0.9-2-0.8 -0.2 0-0.3 0.1-0.4 0.2 -0.2 0.1-0.1 0.2-0.3 0.2 -0.1 0-0.2 0.1-0.2 0.2 0 0.1 0 0.1 0 0.2 0 0 0 0 0 0"
       class="a"
       id="path4075" />
    <path
       d="M38.8-25.7c0 0.1 0 0.1 0 0.2 -0.1 0.1-0.1 0.1-0.2 0.1 0 0.1-0.1 0.3-0.1 0.4 -0.2 0.1 0 0.2 0 0.4 0 0.1 0 0.1 0 0.2 0 0.1 0 0.3 0.1 0.4 0.1 0.2 0.3 0.4 0.4 0.5 0.2 0.1 0.4 0.6 0.6 0.6 0.2 0 0.4-0.1 0.5-0.1 0.2 0 0.4 0 0.6-0.1 0.2-0.1 0.1-0.3 0.3-0.4 0.1-0.1 0.3 0 0.4-0.1 0.2-0.1 0.3-0.3 0.4-0.5 0-0.1 0-0.1 0-0.2 0-0.1 0.1-0.2 0.1-0.3 0-0.1-0.1-0.1-0.1-0.2 0-0.1 0-0.2 0-0.3 0-0.2 0-0.4-0.1-0.5 -0.4-0.7-1.2-0.9-2-0.8 -0.2 0-0.3 0.1-0.4 0.2 -0.2 0.1-0.1 0.2-0.3 0.2 -0.1 0-0.2 0.1-0.2 0.2 0 0.1 0 0.1 0 0.2 0 0 0 0 0 0"
       class="a"
       id="path4077" />
    <path
       d="M31.1-25.7c0 0.1 0 0.1 0 0.2 -0.1 0.1-0.1 0.1-0.2 0.1 0 0.1-0.1 0.3-0.1 0.4 -0.2 0.1 0 0.2 0 0.4 0 0.1 0 0.1 0 0.2 0 0.1 0 0.3 0.1 0.4 0.1 0.2 0.3 0.4 0.4 0.5 0.2 0.1 0.4 0.6 0.6 0.6 0.2 0 0.4-0.1 0.5-0.1 0.2 0 0.4 0 0.6-0.1 0.2-0.1 0.1-0.3 0.3-0.4 0.1-0.1 0.3 0 0.4-0.1 0.2-0.1 0.3-0.3 0.4-0.5 0-0.1 0-0.1 0-0.2 0-0.1 0.1-0.2 0.1-0.3 0-0.1-0.1-0.1-0.1-0.2 0-0.1 0-0.2 0-0.3 0-0.2 0-0.4-0.1-0.5 -0.4-0.7-1.2-0.9-2-0.8 -0.2 0-0.3 0.1-0.4 0.2 -0.2 0.1-0.1 0.2-0.3 0.2 -0.1 0-0.2 0.1-0.2 0.2 0 0.1 0 0.1 0 0.2 0 0 0 0 0 0"
       class="a"
       id="path4079" />
    <path
       d="M23.5-25.7c0 0.1 0 0.1 0 0.2 -0.1 0.1-0.1 0.1-0.2 0.1 0 0.1-0.1 0.3-0.1 0.4 -0.2 0.1 0 0.2 0 0.4 0 0.1 0 0.1 0 0.2 0 0.1 0 0.3 0.1 0.4 0.1 0.2 0.3 0.4 0.4 0.5 0.2 0.1 0.4 0.6 0.6 0.6 0.2 0 0.4-0.1 0.5-0.1 0.2 0 0.4 0 0.6-0.1 0.2-0.1 0.1-0.3 0.3-0.4 0.1-0.1 0.3 0 0.4-0.1 0.2-0.1 0.3-0.3 0.4-0.5 0-0.1 0-0.1 0-0.2 0-0.1 0.1-0.2 0.1-0.3 0-0.1-0.1-0.1-0.1-0.2 0-0.1 0-0.2 0-0.3 0-0.2 0-0.4-0.1-0.5 -0.4-0.7-1.2-0.9-2-0.8 -0.2 0-0.3 0.1-0.4 0.2 -0.2 0.1-0.1 0.2-0.3 0.2 -0.1 0-0.2 0.1-0.2 0.2 0 0.1 0 0.1 0 0.2 0 0 0 0 0 0"
       class="a"
       id="path4081" />
    <path
       d="M15.8-25.7c0 0.1 0 0.1 0 0.2 -0.1 0.1-0.1 0.1-0.2 0.1 0 0.1-0.1 0.3-0.1 0.4 -0.2 0.1 0 0.2 0 0.4 0 0.1 0 0.1 0 0.2 0 0.1 0 0.3 0.1 0.4 0.1 0.2 0.3 0.4 0.4 0.5 0.2 0.1 0.4 0.6 0.6 0.6 0.2 0 0.4-0.1 0.5-0.1 0.2 0 0.4 0 0.6-0.1 0.2-0.1 0.1-0.3 0.3-0.4 0.1-0.1 0.3 0 0.4-0.1 0.2-0.1 0.3-0.3 0.4-0.5 0-0.1 0-0.1 0-0.2 0-0.1 0.1-0.2 0.1-0.3 0-0.1-0.1-0.1-0.1-0.2 0-0.1 0-0.2 0-0.3 0-0.2 0-0.4-0.1-0.5 -0.4-0.7-1.2-0.9-2-0.8 -0.2 0-0.3 0.1-0.4 0.2 -0.2 0.1-0.1 0.2-0.3 0.2 -0.1 0-0.2 0.1-0.2 0.2 0 0.1 0 0.1 0 0.2 0 0 0 0 0 0"
       class="a"
       id="path4083" />
    <path
       d="M8.2-25.7c0 0.1 0 0.1 0 0.2 -0.1 0.1-0.1 0.1-0.2 0.1 0 0.1-0.1 0.3-0.1 0.4 -0.2 0.1 0 0.2 0 0.4 0 0.1 0 0.1 0 0.2 0 0.1 0 0.3 0.1 0.4 0.1 0.2 0.3 0.4 0.4 0.5 0.2 0.1 0.4 0.6 0.6 0.6 0.2 0 0.4-0.1 0.5-0.1 0.2 0 0.4 0 0.6-0.1 0.2-0.1 0.1-0.3 0.3-0.4 0.1-0.1 0.3 0 0.4-0.1 0.2-0.1 0.3-0.3 0.4-0.5 0-0.1 0-0.1 0-0.2 0-0.1 0.1-0.2 0.1-0.3 0-0.1-0.1-0.1-0.1-0.2 0-0.1 0-0.2 0-0.3 0-0.2 0-0.4-0.1-0.5 -0.4-0.7-1.2-0.9-2-0.8 -0.2 0-0.3 0.1-0.4 0.2 -0.2 0.1-0.1 0.2-0.3 0.2 -0.1 0-0.2 0.1-0.2 0.2 0 0.1 0 0.1 0 0.2 0 0 0 0 0 0"
       class="a"
       id="path4085" />
    <path
       d="M0.5-25.7c0 0.1 0 0.1 0 0.2 -0.1 0.1-0.1 0.1-0.2 0.1 0 0.1-0.1 0.3-0.1 0.4 -0.2 0.1 0 0.2 0 0.4 0 0.1 0 0.1 0 0.2 0 0.1 0 0.3 0.1 0.4 0.1 0.2 0.3 0.4 0.4 0.5 0.2 0.1 0.4 0.6 0.6 0.6 0.2 0 0.4-0.1 0.5-0.1 0.2 0 0.4 0 0.6-0.1 0.2-0.1 0.1-0.3 0.3-0.4 0.1-0.1 0.3 0 0.4-0.1 0.2-0.1 0.3-0.3 0.4-0.5 0-0.1 0-0.1 0-0.2 0-0.1 0.1-0.2 0.1-0.3 0-0.1-0.1-0.1-0.1-0.2 0-0.1 0-0.2 0-0.3 0-0.2 0-0.4-0.1-0.5 -0.4-0.7-1.2-0.9-2-0.8 -0.2 0-0.3 0.1-0.4 0.2 -0.2 0.1-0.1 0.2-0.3 0.2 -0.1 0-0.2 0.1-0.2 0.2 0 0.1 0 0.1 0 0.2 0 0 0 0 0 0"
       class="a"
       id="path4087" />
    <path
       d="M69.4-18.1c0 0.1 0 0.1 0 0.2 -0.1 0.1-0.1 0.1-0.2 0.1 0 0.1-0.1 0.3-0.1 0.4 -0.2 0.1 0 0.2 0 0.4 0 0.1 0 0.1 0 0.2 0 0.1 0 0.3 0.1 0.4 0.1 0.2 0.3 0.4 0.4 0.5 0.2 0.1 0.4 0.6 0.6 0.6 0.2 0 0.4-0.1 0.5-0.1 0.2 0 0.4 0 0.6-0.1 0.2-0.1 0.1-0.3 0.3-0.4 0.1-0.1 0.3 0 0.4-0.1 0.2-0.1 0.3-0.3 0.4-0.5 0-0.1 0-0.1 0-0.2 0-0.1 0.1-0.2 0.1-0.3 0-0.1-0.1-0.1-0.1-0.2 0-0.1 0-0.2 0-0.3 0-0.2 0-0.4-0.1-0.5 -0.4-0.7-1.2-0.9-2-0.8 -0.2 0-0.3 0.1-0.4 0.2 -0.2 0.1-0.1 0.2-0.3 0.2 -0.1 0-0.2 0.1-0.2 0.2 0 0.1 0 0.1 0 0.2 0 0 0 0 0 0"
       class="a"
       id="path4089" />
    <path
       d="M61.8-18.1c0 0.1 0 0.1 0 0.2 -0.1 0.1-0.1 0.1-0.2 0.1 0 0.1-0.1 0.3-0.1 0.4 -0.2 0.1 0 0.2 0 0.4 0 0.1 0 0.1 0 0.2 0 0.1 0 0.3 0.1 0.4 0.1 0.2 0.3 0.4 0.4 0.5 0.2 0.1 0.4 0.6 0.6 0.6 0.2 0 0.4-0.1 0.5-0.1 0.2 0 0.4 0 0.6-0.1 0.2-0.1 0.1-0.3 0.3-0.4 0.1-0.1 0.3 0 0.4-0.1 0.2-0.1 0.3-0.3 0.4-0.5 0-0.1 0-0.1 0-0.2 0-0.1 0.1-0.2 0.1-0.3 0-0.1-0.1-0.1-0.1-0.2 0-0.1 0-0.2 0-0.3 0-0.2 0-0.4-0.1-0.5 -0.4-0.7-1.2-0.9-2-0.8 -0.2 0-0.3 0.1-0.4 0.2 -0.2 0.1-0.1 0.2-0.3 0.2 -0.1 0-0.2 0.1-0.2 0.2 0 0.1 0 0.1 0 0.2 0 0 0 0 0 0"
       class="a"
       id="path4091" />
    <path
       d="M54.1-18.1c0 0.1 0 0.1 0 0.2 -0.1 0.1-0.1 0.1-0.2 0.1 0 0.1-0.1 0.3-0.1 0.4 -0.2 0.1 0 0.2 0 0.4 0 0.1 0 0.1 0 0.2 0 0.1 0 0.3 0.1 0.4 0.1 0.2 0.3 0.4 0.4 0.5 0.2 0.1 0.4 0.6 0.6 0.6 0.2 0 0.4-0.1 0.5-0.1 0.2 0 0.4 0 0.6-0.1 0.2-0.1 0.1-0.3 0.3-0.4 0.1-0.1 0.3 0 0.4-0.1 0.2-0.1 0.3-0.3 0.4-0.5 0-0.1 0-0.1 0-0.2 0-0.1 0.1-0.2 0.1-0.3 0-0.1-0.1-0.1-0.1-0.2 0-0.1 0-0.2 0-0.3 0-0.2 0-0.4-0.1-0.5 -0.4-0.7-1.2-0.9-2-0.8 -0.2 0-0.3 0.1-0.4 0.2 -0.2 0.1-0.1 0.2-0.3 0.2 -0.1 0-0.2 0.1-0.2 0.2 0 0.1 0 0.1 0 0.2 0 0 0 0 0 0"
       class="a"
       id="path4093" />
    <path
       d="M46.5-18.1c0 0.1 0 0.1 0 0.2 -0.1 0.1-0.1 0.1-0.2 0.1 0 0.1-0.1 0.3-0.1 0.4 -0.2 0.1 0 0.2 0 0.4 0 0.1 0 0.1 0 0.2 0 0.1 0 0.3 0.1 0.4 0.1 0.2 0.3 0.4 0.4 0.5 0.2 0.1 0.4 0.6 0.6 0.6 0.2 0 0.4-0.1 0.5-0.1 0.2 0 0.4 0 0.6-0.1 0.2-0.1 0.1-0.3 0.3-0.4 0.1-0.1 0.3 0 0.4-0.1 0.2-0.1 0.3-0.3 0.4-0.5 0-0.1 0-0.1 0-0.2 0-0.1 0.1-0.2 0.1-0.3 0-0.1-0.1-0.1-0.1-0.2 0-0.1 0-0.2 0-0.3 0-0.2 0-0.4-0.1-0.5 -0.4-0.7-1.2-0.9-2-0.8 -0.2 0-0.3 0.1-0.4 0.2 -0.2 0.1-0.1 0.2-0.3 0.2 -0.1 0-0.2 0.1-0.2 0.2 0 0.1 0 0.1 0 0.2 0 0 0 0 0 0"
       class="a"
       id="path4095" />
    <path
       d="M38.8-18.1c0 0.1 0 0.1 0 0.2 -0.1 0.1-0.1 0.1-0.2 0.1 0 0.1-0.1 0.3-0.1 0.4 -0.2 0.1 0 0.2 0 0.4 0 0.1 0 0.1 0 0.2 0 0.1 0 0.3 0.1 0.4 0.1 0.2 0.3 0.4 0.4 0.5 0.2 0.1 0.4 0.6 0.6 0.6 0.2 0 0.4-0.1 0.5-0.1 0.2 0 0.4 0 0.6-0.1 0.2-0.1 0.1-0.3 0.3-0.4 0.1-0.1 0.3 0 0.4-0.1 0.2-0.1 0.3-0.3 0.4-0.5 0-0.1 0-0.1 0-0.2 0-0.1 0.1-0.2 0.1-0.3 0-0.1-0.1-0.1-0.1-0.2 0-0.1 0-0.2 0-0.3 0-0.2 0-0.4-0.1-0.5 -0.4-0.7-1.2-0.9-2-0.8 -0.2 0-0.3 0.1-0.4 0.2 -0.2 0.1-0.1 0.2-0.3 0.2 -0.1 0-0.2 0.1-0.2 0.2 0 0.1 0 0.1 0 0.2 0 0 0 0 0 0"
       class="a"
       id="path4097" />
    <path
       d="M31.1-18.1c0 0.1 0 0.1 0 0.2 -0.1 0.1-0.1 0.1-0.2 0.1 0 0.1-0.1 0.3-0.1 0.4 -0.2 0.1 0 0.2 0 0.4 0 0.1 0 0.1 0 0.2 0 0.1 0 0.3 0.1 0.4 0.1 0.2 0.3 0.4 0.4 0.5 0.2 0.1 0.4 0.6 0.6 0.6 0.2 0 0.4-0.1 0.5-0.1 0.2 0 0.4 0 0.6-0.1 0.2-0.1 0.1-0.3 0.3-0.4 0.1-0.1 0.3 0 0.4-0.1 0.2-0.1 0.3-0.3 0.4-0.5 0-0.1 0-0.1 0-0.2 0-0.1 0.1-0.2 0.1-0.3 0-0.1-0.1-0.1-0.1-0.2 0-0.1 0-0.2 0-0.3 0-0.2 0-0.4-0.1-0.5 -0.4-0.7-1.2-0.9-2-0.8 -0.2 0-0.3 0.1-0.4 0.2 -0.2 0.1-0.1 0.2-0.3 0.2 -0.1 0-0.2 0.1-0.2 0.2 0 0.1 0 0.1 0 0.2 0 0 0 0 0 0"
       class="a"
       id="path4099" />
    <path
       d="M23.5-18.1c0 0.1 0 0.1 0 0.2 -0.1 0.1-0.1 0.1-0.2 0.1 0 0.1-0.1 0.3-0.1 0.4 -0.2 0.1 0 0.2 0 0.4 0 0.1 0 0.1 0 0.2 0 0.1 0 0.3 0.1 0.4 0.1 0.2 0.3 0.4 0.4 0.5 0.2 0.1 0.4 0.6 0.6 0.6 0.2 0 0.4-0.1 0.5-0.1 0.2 0 0.4 0 0.6-0.1 0.2-0.1 0.1-0.3 0.3-0.4 0.1-0.1 0.3 0 0.4-0.1 0.2-0.1 0.3-0.3 0.4-0.5 0-0.1 0-0.1 0-0.2 0-0.1 0.1-0.2 0.1-0.3 0-0.1-0.1-0.1-0.1-0.2 0-0.1 0-0.2 0-0.3 0-0.2 0-0.4-0.1-0.5 -0.4-0.7-1.2-0.9-2-0.8 -0.2 0-0.3 0.1-0.4 0.2 -0.2 0.1-0.1 0.2-0.3 0.2 -0.1 0-0.2 0.1-0.2 0.2 0 0.1 0 0.1 0 0.2 0 0 0 0 0 0"
       class="a"
       id="path4101" />
    <path
       d="M15.8-18.1c0 0.1 0 0.1 0 0.2 -0.1 0.1-0.1 0.1-0.2 0.1 0 0.1-0.1 0.3-0.1 0.4 -0.2 0.1 0 0.2 0 0.4 0 0.1 0 0.1 0 0.2 0 0.1 0 0.3 0.1 0.4 0.1 0.2 0.3 0.4 0.4 0.5 0.2 0.1 0.4 0.6 0.6 0.6 0.2 0 0.4-0.1 0.5-0.1 0.2 0 0.4 0 0.6-0.1 0.2-0.1 0.1-0.3 0.3-0.4 0.1-0.1 0.3 0 0.4-0.1 0.2-0.1 0.3-0.3 0.4-0.5 0-0.1 0-0.1 0-0.2 0-0.1 0.1-0.2 0.1-0.3 0-0.1-0.1-0.1-0.1-0.2 0-0.1 0-0.2 0-0.3 0-0.2 0-0.4-0.1-0.5 -0.4-0.7-1.2-0.9-2-0.8 -0.2 0-0.3 0.1-0.4 0.2 -0.2 0.1-0.1 0.2-0.3 0.2 -0.1 0-0.2 0.1-0.2 0.2 0 0.1 0 0.1 0 0.2 0 0 0 0 0 0"
       class="a"
       id="path4103" />
    <path
       d="M8.2-18.1c0 0.1 0 0.1 0 0.2 -0.1 0.1-0.1 0.1-0.2 0.1 0 0.1-0.1 0.3-0.1 0.4 -0.2 0.1 0 0.2 0 0.4 0 0.1 0 0.1 0 0.2 0 0.1 0 0.3 0.1 0.4 0.1 0.2 0.3 0.4 0.4 0.5 0.2 0.1 0.4 0.6 0.6 0.6 0.2 0 0.4-0.1 0.5-0.1 0.2 0 0.4 0 0.6-0.1 0.2-0.1 0.1-0.3 0.3-0.4 0.1-0.1 0.3 0 0.4-0.1 0.2-0.1 0.3-0.3 0.4-0.5 0-0.1 0-0.1 0-0.2 0-0.1 0.1-0.2 0.1-0.3 0-0.1-0.1-0.1-0.1-0.2 0-0.1 0-0.2 0-0.3 0-0.2 0-0.4-0.1-0.5 -0.4-0.7-1.2-0.9-2-0.8 -0.2 0-0.3 0.1-0.4 0.2 -0.2 0.1-0.1 0.2-0.3 0.2 -0.1 0-0.2 0.1-0.2 0.2 0 0.1 0 0.1 0 0.2 0 0 0 0 0 0"
       class="a"
       id="path4105" />
    <path
       d="M0.5-18.1c0 0.1 0 0.1 0 0.2 -0.1 0.1-0.1 0.1-0.2 0.1 0 0.1-0.1 0.3-0.1 0.4 -0.2 0.1 0 0.2 0 0.4 0 0.1 0 0.1 0 0.2 0 0.1 0 0.3 0.1 0.4 0.1 0.2 0.3 0.4 0.4 0.5 0.2 0.1 0.4 0.6 0.6 0.6 0.2 0 0.4-0.1 0.5-0.1 0.2 0 0.4 0 0.6-0.1 0.2-0.1 0.1-0.3 0.3-0.4 0.1-0.1 0.3 0 0.4-0.1 0.2-0.1 0.3-0.3 0.4-0.5 0-0.1 0-0.1 0-0.2 0-0.1 0.1-0.2 0.1-0.3 0-0.1-0.1-0.1-0.1-0.2 0-0.1 0-0.2 0-0.3 0-0.2 0-0.4-0.1-0.5 -0.4-0.7-1.2-0.9-2-0.8 -0.2 0-0.3 0.1-0.4 0.2 -0.2 0.1-0.1 0.2-0.3 0.2 -0.1 0-0.2 0.1-0.2 0.2C0.5-18.1 0.5-18.2 0.5-18.1c0 0 0 0 0 0"
       class="a"
       id="path4107" />
    <path
       d="M69.4-10.4c0 0.1 0 0.1 0 0.2 -0.1 0.1-0.1 0.1-0.2 0.1 0 0.1-0.1 0.3-0.1 0.4C69-9.7 69.2-9.5 69.2-9.4c0 0.1 0 0.1 0 0.2 0 0.1 0 0.3 0.1 0.4 0.1 0.2 0.3 0.4 0.4 0.5 0.2 0.1 0.4 0.6 0.6 0.6 0.2 0 0.4-0.1 0.5-0.1 0.2 0 0.4 0 0.6-0.1 0.2-0.1 0.1-0.3 0.3-0.4 0.1-0.1 0.3 0 0.4-0.1 0.2-0.1 0.3-0.3 0.4-0.5 0-0.1 0-0.1 0-0.2 0-0.1 0.1-0.2 0.1-0.3 0-0.1-0.1-0.1-0.1-0.2 0-0.1 0-0.2 0-0.3 0-0.2 0-0.4-0.1-0.5 -0.4-0.7-1.2-0.9-2-0.8 -0.2 0-0.3 0.1-0.4 0.2 -0.2 0.1-0.1 0.2-0.3 0.2 -0.1 0-0.2 0.1-0.2 0.2 0 0.1 0 0.1 0 0.2 0 0 0 0 0 0"
       class="a"
       id="path4109" />
    <path
       d="M61.8-10.4c0 0.1 0 0.1 0 0.2 -0.1 0.1-0.1 0.1-0.2 0.1 0 0.1-0.1 0.3-0.1 0.4 -0.2 0.1 0 0.2 0 0.4 0 0.1 0 0.1 0 0.2 0 0.1 0 0.3 0.1 0.4 0.1 0.2 0.3 0.4 0.4 0.5 0.2 0.1 0.4 0.6 0.6 0.6 0.2 0 0.4-0.1 0.5-0.1 0.2 0 0.4 0 0.6-0.1 0.2-0.1 0.1-0.3 0.3-0.4 0.1-0.1 0.3 0 0.4-0.1 0.2-0.1 0.3-0.3 0.4-0.5 0-0.1 0-0.1 0-0.2 0-0.1 0.1-0.2 0.1-0.3 0-0.1-0.1-0.1-0.1-0.2 0-0.1 0-0.2 0-0.3 0-0.2 0-0.4-0.1-0.5 -0.4-0.7-1.2-0.9-2-0.8 -0.2 0-0.3 0.1-0.4 0.2 -0.2 0.1-0.1 0.2-0.3 0.2 -0.1 0-0.2 0.1-0.2 0.2 0 0.1 0 0.1 0 0.2 0 0 0 0 0 0"
       class="a"
       id="path4111" />
    <path
       d="M54.1-10.4c0 0.1 0 0.1 0 0.2 -0.1 0.1-0.1 0.1-0.2 0.1 0 0.1-0.1 0.3-0.1 0.4 -0.2 0.1 0 0.2 0 0.4 0 0.1 0 0.1 0 0.2 0 0.1 0 0.3 0.1 0.4 0.1 0.2 0.3 0.4 0.4 0.5 0.2 0.1 0.4 0.6 0.6 0.6 0.2 0 0.4-0.1 0.5-0.1 0.2 0 0.4 0 0.6-0.1 0.2-0.1 0.1-0.3 0.3-0.4 0.1-0.1 0.3 0 0.4-0.1 0.2-0.1 0.3-0.3 0.4-0.5 0-0.1 0-0.1 0-0.2 0-0.1 0.1-0.2 0.1-0.3 0-0.1-0.1-0.1-0.1-0.2 0-0.1 0-0.2 0-0.3 0-0.2 0-0.4-0.1-0.5 -0.4-0.7-1.2-0.9-2-0.8 -0.2 0-0.3 0.1-0.4 0.2 -0.2 0.1-0.1 0.2-0.3 0.2 -0.1 0-0.2 0.1-0.2 0.2 0 0.1 0 0.1 0 0.2 0 0 0 0 0 0"
       class="a"
       id="path4113" />
    <path
       d="M46.5-10.4c0 0.1 0 0.1 0 0.2 -0.1 0.1-0.1 0.1-0.2 0.1 0 0.1-0.1 0.3-0.1 0.4 -0.2 0.1 0 0.2 0 0.4 0 0.1 0 0.1 0 0.2 0 0.1 0 0.3 0.1 0.4 0.1 0.2 0.3 0.4 0.4 0.5 0.2 0.1 0.4 0.6 0.6 0.6 0.2 0 0.4-0.1 0.5-0.1 0.2 0 0.4 0 0.6-0.1 0.2-0.1 0.1-0.3 0.3-0.4 0.1-0.1 0.3 0 0.4-0.1 0.2-0.1 0.3-0.3 0.4-0.5 0-0.1 0-0.1 0-0.2 0-0.1 0.1-0.2 0.1-0.3 0-0.1-0.1-0.1-0.1-0.2 0-0.1 0-0.2 0-0.3 0-0.2 0-0.4-0.1-0.5 -0.4-0.7-1.2-0.9-2-0.8 -0.2 0-0.3 0.1-0.4 0.2 -0.2 0.1-0.1 0.2-0.3 0.2 -0.1 0-0.2 0.1-0.2 0.2 0 0.1 0 0.1 0 0.2 0 0 0 0 0 0"
       class="a"
       id="path4115" />
    <path
       d="M38.8-10.4c0 0.1 0 0.1 0 0.2 -0.1 0.1-0.1 0.1-0.2 0.1 0 0.1-0.1 0.3-0.1 0.4 -0.2 0.1 0 0.2 0 0.4 0 0.1 0 0.1 0 0.2 0 0.1 0 0.3 0.1 0.4 0.1 0.2 0.3 0.4 0.4 0.5 0.2 0.1 0.4 0.6 0.6 0.6 0.2 0 0.4-0.1 0.5-0.1 0.2 0 0.4 0 0.6-0.1 0.2-0.1 0.1-0.3 0.3-0.4 0.1-0.1 0.3 0 0.4-0.1 0.2-0.1 0.3-0.3 0.4-0.5 0-0.1 0-0.1 0-0.2 0-0.1 0.1-0.2 0.1-0.3 0-0.1-0.1-0.1-0.1-0.2 0-0.1 0-0.2 0-0.3 0-0.2 0-0.4-0.1-0.5 -0.4-0.7-1.2-0.9-2-0.8 -0.2 0-0.3 0.1-0.4 0.2 -0.2 0.1-0.1 0.2-0.3 0.2 -0.1 0-0.2 0.1-0.2 0.2 0 0.1 0 0.1 0 0.2 0 0 0 0 0 0"
       class="a"
       id="path4117" />
    <path
       d="M31.1-10.4c0 0.1 0 0.1 0 0.2 -0.1 0.1-0.1 0.1-0.2 0.1 0 0.1-0.1 0.3-0.1 0.4 -0.2 0.1 0 0.2 0 0.4 0 0.1 0 0.1 0 0.2 0 0.1 0 0.3 0.1 0.4 0.1 0.2 0.3 0.4 0.4 0.5 0.2 0.1 0.4 0.6 0.6 0.6 0.2 0 0.4-0.1 0.5-0.1 0.2 0 0.4 0 0.6-0.1 0.2-0.1 0.1-0.3 0.3-0.4 0.1-0.1 0.3 0 0.4-0.1 0.2-0.1 0.3-0.3 0.4-0.5 0-0.1 0-0.1 0-0.2 0-0.1 0.1-0.2 0.1-0.3 0-0.1-0.1-0.1-0.1-0.2 0-0.1 0-0.2 0-0.3 0-0.2 0-0.4-0.1-0.5 -0.4-0.7-1.2-0.9-2-0.8 -0.2 0-0.3 0.1-0.4 0.2 -0.2 0.1-0.1 0.2-0.3 0.2 -0.1 0-0.2 0.1-0.2 0.2 0 0.1 0 0.1 0 0.2 0 0 0 0 0 0"
       class="a"
       id="path4119" />
    <path
       d="M23.5-10.4c0 0.1 0 0.1 0 0.2 -0.1 0.1-0.1 0.1-0.2 0.1 0 0.1-0.1 0.3-0.1 0.4 -0.2 0.1 0 0.2 0 0.4 0 0.1 0 0.1 0 0.2 0 0.1 0 0.3 0.1 0.4 0.1 0.2 0.3 0.4 0.4 0.5 0.2 0.1 0.4 0.6 0.6 0.6 0.2 0 0.4-0.1 0.5-0.1 0.2 0 0.4 0 0.6-0.1 0.2-0.1 0.1-0.3 0.3-0.4 0.1-0.1 0.3 0 0.4-0.1 0.2-0.1 0.3-0.3 0.4-0.5 0-0.1 0-0.1 0-0.2 0-0.1 0.1-0.2 0.1-0.3 0-0.1-0.1-0.1-0.1-0.2 0-0.1 0-0.2 0-0.3 0-0.2 0-0.4-0.1-0.5 -0.4-0.7-1.2-0.9-2-0.8 -0.2 0-0.3 0.1-0.4 0.2 -0.2 0.1-0.1 0.2-0.3 0.2 -0.1 0-0.2 0.1-0.2 0.2 0 0.1 0 0.1 0 0.2 0 0 0 0 0 0"
       class="a"
       id="path4121" />
    <path
       d="M15.8-10.4c0 0.1 0 0.1 0 0.2 -0.1 0.1-0.1 0.1-0.2 0.1 0 0.1-0.1 0.3-0.1 0.4 -0.2 0.1 0 0.2 0 0.4 0 0.1 0 0.1 0 0.2 0 0.1 0 0.3 0.1 0.4 0.1 0.2 0.3 0.4 0.4 0.5 0.2 0.1 0.4 0.6 0.6 0.6 0.2 0 0.4-0.1 0.5-0.1 0.2 0 0.4 0 0.6-0.1C17.9-8 17.8-8.2 18-8.3c0.1-0.1 0.3 0 0.4-0.1 0.2-0.1 0.3-0.3 0.4-0.5 0-0.1 0-0.1 0-0.2 0-0.1 0.1-0.2 0.1-0.3 0-0.1-0.1-0.1-0.1-0.2 0-0.1 0-0.2 0-0.3 0-0.2 0-0.4-0.1-0.5 -0.4-0.7-1.2-0.9-2-0.8 -0.2 0-0.3 0.1-0.4 0.2 -0.2 0.1-0.1 0.2-0.3 0.2 -0.1 0-0.2 0.1-0.2 0.2 0 0.1 0 0.1 0 0.2 0 0 0 0 0 0"
       class="a"
       id="path4123" />
    <path
       d="M8.2-10.4c0 0.1 0 0.1 0 0.2 -0.1 0.1-0.1 0.1-0.2 0.1C7.9-10 7.9-9.8 7.9-9.7 7.7-9.7 7.9-9.5 7.9-9.4 7.9-9.4 7.8-9.3 7.8-9.2c0 0.1 0 0.3 0.1 0.4 0.1 0.2 0.3 0.4 0.4 0.5 0.2 0.1 0.4 0.6 0.6 0.6C9.1-7.7 9.3-7.8 9.5-7.8c0.2 0 0.4 0 0.6-0.1 0.2-0.1 0.1-0.3 0.3-0.4 0.1-0.1 0.3 0 0.4-0.1 0.2-0.1 0.3-0.3 0.4-0.5 0-0.1 0-0.1 0-0.2 0-0.1 0.1-0.2 0.1-0.3 0-0.1-0.1-0.1-0.1-0.2 0-0.1 0-0.2 0-0.3 0-0.2 0-0.4-0.1-0.5 -0.4-0.7-1.2-0.9-2-0.8 -0.2 0-0.3 0.1-0.4 0.2 -0.2 0.1-0.1 0.2-0.3 0.2 -0.1 0-0.2 0.1-0.2 0.2 0 0.1 0 0.1 0 0.2 0 0 0 0 0 0"
       class="a"
       id="path4125" />
    <path
       d="M0.5-10.4c0 0.1 0 0.1 0 0.2 -0.1 0.1-0.1 0.1-0.2 0.1C0.3-10 0.2-9.8 0.2-9.7 0.1-9.7 0.2-9.5 0.2-9.4c0 0.1 0 0.1 0 0.2 0 0.1 0 0.3 0.1 0.4C0.3-8.7 0.5-8.5 0.7-8.3c0.2 0.1 0.4 0.6 0.6 0.6C1.5-7.7 1.7-7.8 1.8-7.8 2-7.9 2.2-7.8 2.4-7.9c0.2-0.1 0.1-0.3 0.3-0.4 0.1-0.1 0.3 0 0.4-0.1 0.2-0.1 0.3-0.3 0.4-0.5C3.5-8.9 3.5-9 3.5-9.1c0-0.1 0.1-0.2 0.1-0.3 0-0.1-0.1-0.1-0.1-0.2 0-0.1 0-0.2 0-0.3 0-0.2 0-0.4-0.1-0.5 -0.4-0.7-1.2-0.9-2-0.8 -0.2 0-0.3 0.1-0.4 0.2 -0.2 0.1-0.1 0.2-0.3 0.2 -0.1 0-0.2 0.1-0.2 0.2 0 0.1 0 0.1 0 0.2 0 0 0 0 0 0"
       class="a"
       id="path4127" />
    <path
       d="M69.4-2.8c0 0.1 0 0.1 0 0.2C69.4-2.5 69.3-2.5 69.2-2.5c-0.1 0.1-0.1 0.3-0.1 0.4C69-2 69.2-1.9 69.2-1.7c0 0.1 0 0.1 0 0.2 0 0.1 0 0.3 0.1 0.4 0.1 0.2 0.3 0.4 0.4 0.5 0.2 0.1 0.4 0.6 0.6 0.6C70.4 0 70.6-0.1 70.8-0.2c0.2 0 0.4 0 0.6-0.1 0.2-0.1 0.1-0.3 0.3-0.4 0.1-0.1 0.3 0 0.4-0.1 0.2-0.1 0.3-0.3 0.4-0.5 0-0.1 0-0.1 0-0.2 0-0.1 0.1-0.2 0.1-0.3 0-0.1-0.1-0.1-0.1-0.2 0-0.1 0-0.2 0-0.3 0-0.2 0-0.4-0.1-0.5 -0.4-0.7-1.2-0.9-2-0.8 -0.2 0-0.3 0.1-0.4 0.2 -0.2 0.1-0.1 0.2-0.3 0.2 -0.1 0-0.2 0.1-0.2 0.2 0 0.1 0 0.1 0 0.2 0 0 0 0 0 0"
       class="a"
       id="path4129" />
    <path
       d="M61.8-2.8c0 0.1 0 0.1 0 0.2C61.7-2.5 61.6-2.5 61.6-2.5c0 0.1-0.1 0.3-0.1 0.4 -0.2 0.1 0 0.2 0 0.4 0 0.1 0 0.1 0 0.2 0 0.1 0 0.3 0.1 0.4 0.1 0.2 0.3 0.4 0.4 0.5 0.2 0.1 0.4 0.6 0.6 0.6C62.7 0 62.9-0.1 63.1-0.2c0.2 0 0.4 0 0.6-0.1 0.2-0.1 0.1-0.3 0.3-0.4 0.1-0.1 0.3 0 0.4-0.1 0.2-0.1 0.3-0.3 0.4-0.5 0-0.1 0-0.1 0-0.2 0-0.1 0.1-0.2 0.1-0.3 0-0.1-0.1-0.1-0.1-0.2 0-0.1 0-0.2 0-0.3 0-0.2 0-0.4-0.1-0.5 -0.4-0.7-1.2-0.9-2-0.8 -0.2 0-0.3 0.1-0.4 0.2 -0.2 0.1-0.1 0.2-0.3 0.2C61.9-3.1 61.8-3 61.8-2.9c0 0.1 0 0.1 0 0.2 0 0 0 0 0 0"
       class="a"
       id="path4131" />
    <path
       d="M54.1-2.8c0 0.1 0 0.1 0 0.2C54-2.5 54-2.5 53.9-2.5c0 0.1-0.1 0.3-0.1 0.4 -0.2 0.1 0 0.2 0 0.4 0 0.1 0 0.1 0 0.2 0 0.1 0 0.3 0.1 0.4 0.1 0.2 0.3 0.4 0.4 0.5 0.2 0.1 0.4 0.6 0.6 0.6C55.1 0 55.3-0.1 55.4-0.2c0.2 0 0.4 0 0.6-0.1 0.2-0.1 0.1-0.3 0.3-0.4 0.1-0.1 0.3 0 0.4-0.1 0.2-0.1 0.3-0.3 0.4-0.5 0-0.1 0-0.1 0-0.2 0-0.1 0.1-0.2 0.1-0.3 0-0.1-0.1-0.1-0.1-0.2 0-0.1 0-0.2 0-0.3 0-0.2 0-0.4-0.1-0.5 -0.4-0.7-1.2-0.9-2-0.8 -0.2 0-0.3 0.1-0.4 0.2 -0.2 0.1-0.1 0.2-0.3 0.2C54.3-3.1 54.1-3 54.1-2.9c0 0.1 0 0.1 0 0.2 0 0 0 0 0 0"
       class="a"
       id="path4133" />
    <path
       d="M46.5-2.8c0 0.1 0 0.1 0 0.2 -0.1 0.1-0.1 0.1-0.2 0.1 0 0.1-0.1 0.3-0.1 0.4 -0.2 0.1 0 0.2 0 0.4 0 0.1 0 0.1 0 0.2 0 0.1 0 0.3 0.1 0.4 0.1 0.2 0.3 0.4 0.4 0.5 0.2 0.1 0.4 0.6 0.6 0.6C47.4 0 47.6-0.1 47.8-0.2c0.2 0 0.4 0 0.6-0.1 0.2-0.1 0.1-0.3 0.3-0.4 0.1-0.1 0.3 0 0.4-0.1 0.2-0.1 0.3-0.3 0.4-0.5 0-0.1 0-0.1 0-0.2 0-0.1 0.1-0.2 0.1-0.3 0-0.1-0.1-0.1-0.1-0.2 0-0.1 0-0.2 0-0.3 0-0.2 0-0.4-0.1-0.5 -0.4-0.7-1.2-0.9-2-0.8 -0.2 0-0.3 0.1-0.4 0.2 -0.2 0.1-0.1 0.2-0.3 0.2C46.6-3.1 46.5-3 46.5-2.9c0 0.1 0 0.1 0 0.2 0 0 0 0 0 0"
       class="a"
       id="path4135" />
    <path
       d="M38.8-2.8c0 0.1 0 0.1 0 0.2 -0.1 0.1-0.1 0.1-0.2 0.1 0 0.1-0.1 0.3-0.1 0.4 -0.2 0.1 0 0.2 0 0.4 0 0.1 0 0.1 0 0.2 0 0.1 0 0.3 0.1 0.4 0.1 0.2 0.3 0.4 0.4 0.5 0.2 0.1 0.4 0.6 0.6 0.6C39.8 0 40-0.1 40.1-0.2c0.2 0 0.4 0 0.6-0.1 0.2-0.1 0.1-0.3 0.3-0.4 0.1-0.1 0.3 0 0.4-0.1 0.2-0.1 0.3-0.3 0.4-0.5 0-0.1 0-0.1 0-0.2 0-0.1 0.1-0.2 0.1-0.3 0-0.1-0.1-0.1-0.1-0.2 0-0.1 0-0.2 0-0.3 0-0.2 0-0.4-0.1-0.5 -0.4-0.7-1.2-0.9-2-0.8 -0.2 0-0.3 0.1-0.4 0.2 -0.2 0.1-0.1 0.2-0.3 0.2C38.9-3.1 38.8-3 38.8-2.9c0 0.1 0 0.1 0 0.2 0 0 0 0 0 0"
       class="a"
       id="path4137" />
    <path
       d="M31.1-2.8c0 0.1 0 0.1 0 0.2 -0.1 0.1-0.1 0.1-0.2 0.1 0 0.1-0.1 0.3-0.1 0.4 -0.2 0.1 0 0.2 0 0.4 0 0.1 0 0.1 0 0.2 0 0.1 0 0.3 0.1 0.4 0.1 0.2 0.3 0.4 0.4 0.5 0.2 0.1 0.4 0.6 0.6 0.6C32.1 0 32.3-0.1 32.5-0.2c0.2 0 0.4 0 0.6-0.1 0.2-0.1 0.1-0.3 0.3-0.4 0.1-0.1 0.3 0 0.4-0.1 0.2-0.1 0.3-0.3 0.4-0.5 0-0.1 0-0.1 0-0.2 0-0.1 0.1-0.2 0.1-0.3 0-0.1-0.1-0.1-0.1-0.2 0-0.1 0-0.2 0-0.3 0-0.2 0-0.4-0.1-0.5 -0.4-0.7-1.2-0.9-2-0.8 -0.2 0-0.3 0.1-0.4 0.2 -0.2 0.1-0.1 0.2-0.3 0.2C31.3-3.1 31.1-3 31.1-2.9c0 0.1 0 0.1 0 0.2 0 0 0 0 0 0"
       class="a"
       id="path4139" />
    <path
       d="M23.5-2.8c0 0.1 0 0.1 0 0.2 -0.1 0.1-0.1 0.1-0.2 0.1 0 0.1-0.1 0.3-0.1 0.4 -0.2 0.1 0 0.2 0 0.4 0 0.1 0 0.1 0 0.2 0 0.1 0 0.3 0.1 0.4 0.1 0.2 0.3 0.4 0.4 0.5 0.2 0.1 0.4 0.6 0.6 0.6C24.4 0 24.6-0.1 24.8-0.2c0.2 0 0.4 0 0.6-0.1 0.2-0.1 0.1-0.3 0.3-0.4 0.1-0.1 0.3 0 0.4-0.1 0.2-0.1 0.3-0.3 0.4-0.5 0-0.1 0-0.1 0-0.2 0-0.1 0.1-0.2 0.1-0.3 0-0.1-0.1-0.1-0.1-0.2 0-0.1 0-0.2 0-0.3 0-0.2 0-0.4-0.1-0.5 -0.4-0.7-1.2-0.9-2-0.8 -0.2 0-0.3 0.1-0.4 0.2 -0.2 0.1-0.1 0.2-0.3 0.2 -0.1 0-0.2 0.1-0.2 0.2 0 0.1 0 0.1 0 0.2 0 0 0 0 0 0"
       class="a"
       id="path4141" />
    <path
       d="M15.8-2.8c0 0.1 0 0.1 0 0.2 -0.1 0.1-0.1 0.1-0.2 0.1 0 0.1-0.1 0.3-0.1 0.4 -0.2 0.1 0 0.2 0 0.4 0 0.1 0 0.1 0 0.2 0 0.1 0 0.3 0.1 0.4 0.1 0.2 0.3 0.4 0.4 0.5 0.2 0.1 0.4 0.6 0.6 0.6C16.8 0 17-0.1 17.1-0.2c0.2 0 0.4 0 0.6-0.1 0.2-0.1 0.1-0.3 0.3-0.4 0.1-0.1 0.3 0 0.4-0.1 0.2-0.1 0.3-0.3 0.4-0.5 0-0.1 0-0.1 0-0.2 0-0.1 0.1-0.2 0.1-0.3 0-0.1-0.1-0.1-0.1-0.2 0-0.1 0-0.2 0-0.3 0-0.2 0-0.4-0.1-0.5 -0.4-0.7-1.2-0.9-2-0.8 -0.2 0-0.3 0.1-0.4 0.2 -0.2 0.1-0.1 0.2-0.3 0.2 -0.1 0-0.2 0.1-0.2 0.2 0 0.1 0 0.1 0 0.2C15.8-2.7 15.8-2.8 15.8-2.8"
       class="a"
       id="path4143" />
    <path
       d="M8.2-2.8c0 0.1 0 0.1 0 0.2C8.1-2.5 8-2.5 8-2.5c0 0.1-0.1 0.3-0.1 0.4 -0.2 0.1 0 0.2 0 0.4C7.9-1.7 7.8-1.6 7.8-1.6c0 0.1 0 0.3 0.1 0.4 0.1 0.2 0.3 0.4 0.4 0.5 0.2 0.1 0.4 0.6 0.6 0.6C9.1 0 9.3-0.1 9.5-0.2c0.2 0 0.4 0 0.6-0.1 0.2-0.1 0.1-0.3 0.3-0.4 0.1-0.1 0.3 0 0.4-0.1 0.2-0.1 0.3-0.3 0.4-0.5 0-0.1 0-0.1 0-0.2 0-0.1 0.1-0.2 0.1-0.3 0-0.1-0.1-0.1-0.1-0.2 0-0.1 0-0.2 0-0.3 0-0.2 0-0.4-0.1-0.5 -0.4-0.7-1.2-0.9-2-0.8C9-3.5 8.8-3.4 8.7-3.4c-0.2 0.1-0.1 0.2-0.3 0.2C8.3-3.1 8.2-3 8.2-2.9 8.2-2.8 8.2-2.9 8.2-2.8 8.2-2.7 8.1-2.8 8.1-2.8"
       class="a"
       id="path4145" />
    <path
       d="M0.5-2.8c0 0.1 0 0.1 0 0.2C0.4-2.5 0.4-2.5 0.3-2.5 0.3-2.4 0.2-2.2 0.2-2.1 0.1-2 0.2-1.9 0.2-1.7c0 0.1 0 0.1 0 0.2 0 0.1 0 0.3 0.1 0.4C0.3-1 0.5-0.8 0.7-0.7c0.2 0.1 0.4 0.6 0.6 0.6C1.5 0 1.7-0.1 1.8-0.2 2-0.2 2.2-0.2 2.4-0.2c0.2-0.1 0.1-0.3 0.3-0.4 0.1-0.1 0.3 0 0.4-0.1 0.2-0.1 0.3-0.3 0.4-0.5C3.5-1.3 3.5-1.3 3.5-1.4c0-0.1 0.1-0.2 0.1-0.3 0-0.1-0.1-0.1-0.1-0.2 0-0.1 0-0.2 0-0.3 0-0.2 0-0.4-0.1-0.5 -0.4-0.7-1.2-0.9-2-0.8C1.3-3.5 1.2-3.4 1-3.4c-0.2 0.1-0.1 0.2-0.3 0.2C0.6-3.1 0.5-3 0.5-2.9 0.5-2.8 0.5-2.9 0.5-2.8 0.5-2.7 0.5-2.8 0.5-2.8"
       class="a"
       id="path4147" />
  </pattern>
  <path
     d="M37.7 62.4c0 0.7 0 1.3-0.1 1.8 0 0.5-0.1 0.9-0.2 1.3 -0.1 0.3-0.2 0.6-0.3 0.9 -0.1 0.3-0.3 0.5-0.6 0.9 -0.3 0.3-0.8 0.7-1.7 1.2 -0.8 0.5-1.8 1-3 1.4 -1.2 0.5-2.6 0.8-4.1 1.1 -1.5 0.3-3.2 0.5-5 0.5 -3.5 0-6.6-0.6-9.5-1.7 -2.8-1.1-5.2-2.8-7.2-5.1 -2-2.3-3.5-5.1-4.5-8.5C0.5 52.7 0 48.8 0 44.3c0-4.6 0.6-8.7 1.7-12.2 1.2-3.6 2.8-6.5 4.8-9 2.1-2.4 4.6-4.3 7.5-5.5s6.1-1.9 9.6-1.9c1.4 0 2.8 0.1 4.1 0.4 1.3 0.3 2.5 0.6 3.6 1 1.1 0.4 2.1 0.9 3 1.4s1.5 1 1.9 1.4c0.4 0.4 0.6 0.7 0.7 0.9 0.1 0.3 0.2 0.6 0.3 1 0.1 0.4 0.1 0.8 0.2 1.4 0 0.5 0.1 1.2 0.1 2 0 0.8 0 1.5-0.1 2.1s-0.1 1.1-0.3 1.4c-0.1 0.4-0.3 0.6-0.5 0.8 -0.2 0.2-0.4 0.3-0.6 0.3 -0.4 0-0.9-0.2-1.5-0.7 -0.6-0.5-1.4-1-2.3-1.6 -1-0.6-2.1-1.1-3.4-1.6 -1.3-0.5-2.9-0.7-4.7-0.7 -2 0-3.8 0.4-5.4 1.3 -1.6 0.9-2.9 2.1-4.1 3.8 -1.1 1.6-2 3.6-2.5 5.9 -0.6 2.3-0.9 4.9-0.9 7.8 0 3.2 0.3 5.9 0.9 8.2 0.6 2.3 1.5 4.2 2.6 5.7 1.1 1.5 2.5 2.6 4.1 3.4 1.6 0.7 3.4 1.1 5.5 1.1 1.8 0 3.4-0.2 4.8-0.7 1.3-0.5 2.5-1 3.4-1.5 1-0.6 1.7-1.1 2.4-1.5 0.6-0.4 1.1-0.7 1.4-0.7 0.3 0 0.5 0.1 0.6 0.2 0.2 0.1 0.3 0.3 0.4 0.7 0.1 0.3 0.2 0.8 0.2 1.4C37.7 60.6 37.7 61.4 37.7 62.4z"
     id="path4149"
     style="fill:#f2f2f2;stroke:#000000;stroke-opacity:1;stroke-width:0.25007042;stroke-miterlimit:4;stroke-dasharray:none" />
  <path
     d="M53.5 19.3c0 2.1-0.4 3.6-1.2 4.4 -0.8 0.8-2.3 1.2-4.5 1.2 -2.2 0-3.7-0.4-4.5-1.2 -0.8-0.8-1.2-2.2-1.2-4.2 0-2.1 0.4-3.6 1.2-4.4 0.8-0.8 2.3-1.2 4.6-1.2 2.2 0 3.7 0.4 4.5 1.2C53.1 15.9 53.5 17.3 53.5 19.3zM52.7 69.1c0 0.3-0.1 0.5-0.2 0.7 -0.2 0.2-0.4 0.4-0.8 0.5 -0.4 0.1-0.9 0.2-1.5 0.3 -0.6 0.1-1.4 0.1-2.4 0.1 -1 0-1.8 0-2.4-0.1 -0.6-0.1-1.1-0.2-1.5-0.3s-0.6-0.3-0.8-0.5c-0.2-0.2-0.2-0.5-0.2-0.7V32c0-0.3 0.1-0.5 0.2-0.7 0.2-0.2 0.4-0.4 0.8-0.5 0.4-0.2 0.9-0.3 1.5-0.4 0.6-0.1 1.4-0.1 2.4-0.1 1 0 1.8 0 2.4 0.1s1.1 0.2 1.5 0.4c0.4 0.2 0.7 0.3 0.8 0.5 0.2 0.2 0.2 0.5 0.2 0.7V69.1z"
     id="path4151"
     style="fill:#f2f2f2;stroke:#000000;stroke-opacity:1;stroke-width:0.25007042;stroke-miterlimit:4;stroke-dasharray:none" />
  <path
     d="M81.6 65.5c0 1.2-0.1 2.2-0.2 2.8 -0.1 0.7-0.3 1.1-0.6 1.4 -0.2 0.3-0.6 0.5-1 0.7 -0.5 0.2-1 0.4-1.6 0.5 -0.6 0.2-1.3 0.3-2 0.4 -0.7 0.1-1.5 0.1-2.2 0.1 -2 0-3.7-0.3-5.1-0.8 -1.4-0.5-2.6-1.3-3.6-2.4s-1.6-2.5-2.1-4.1c-0.4-1.7-0.7-3.6-0.7-5.9V39h-4.2c-0.5 0-0.9-0.3-1.1-1 -0.3-0.7-0.4-1.7-0.4-3.3 0-0.8 0-1.5 0.1-2 0.1-0.6 0.2-1 0.3-1.3 0.1-0.3 0.3-0.5 0.5-0.7 0.2-0.1 0.4-0.2 0.7-0.2h4.2v-8.3c0-0.3 0.1-0.5 0.2-0.7 0.1-0.2 0.4-0.4 0.8-0.6 0.4-0.2 0.9-0.3 1.5-0.3 0.6-0.1 1.4-0.1 2.4-0.1 1 0 1.8 0 2.4 0.1 0.6 0.1 1.2 0.2 1.5 0.3 0.4 0.2 0.6 0.3 0.8 0.6 0.2 0.2 0.2 0.5 0.2 0.8v8.3h7.6c0.3 0 0.5 0.1 0.7 0.2 0.2 0.1 0.4 0.4 0.5 0.7 0.1 0.3 0.2 0.8 0.3 1.3 0.1 0.6 0.1 1.2 0.1 2 0 1.5-0.1 2.6-0.4 3.3 -0.3 0.7-0.6 1-1.1 1h-7.7v17.5c0 2 0.3 3.6 0.9 4.6 0.6 1 1.7 1.5 3.2 1.5 0.5 0 1 0 1.4-0.1 0.4-0.1 0.8-0.2 1.1-0.3 0.3-0.1 0.6-0.2 0.8-0.3 0.2-0.1 0.4-0.1 0.6-0.1 0.2 0 0.3 0.1 0.5 0.1 0.1 0.1 0.3 0.3 0.3 0.6 0.1 0.3 0.2 0.7 0.2 1.2C81.6 64.1 81.6 64.7 81.6 65.5z"
     id="path4153"
     style="fill:#f2f2f2;stroke:#000000;stroke-opacity:1;stroke-width:0.25007042;stroke-miterlimit:4;stroke-dasharray:none" />
  <path
     d="M107.4 70.6l-4.3 13.2c-0.2 0.7-0.9 1.2-1.9 1.5 -1.1 0.3-2.6 0.5-4.6 0.5 -1.1 0-1.9 0-2.5-0.1 -0.6-0.1-1.1-0.3-1.4-0.5 -0.3-0.2-0.5-0.5-0.5-0.8s0.1-0.7 0.2-1.2l4.7-12.5c-0.3-0.2-0.6-0.4-0.9-0.8 -0.3-0.3-0.5-0.7-0.6-1.1L83.5 34.5c-0.3-1-0.5-1.7-0.5-2.2 0-0.5 0.2-0.9 0.5-1.2 0.3-0.3 0.8-0.5 1.6-0.6 0.7-0.1 1.7-0.2 3-0.2 1.1 0 2 0 2.7 0.1 0.7 0 1.2 0.1 1.5 0.3 0.4 0.2 0.6 0.4 0.8 0.8 0.2 0.3 0.4 0.8 0.6 1.5l8.3 24.9h0.1l7.6-25.4c0.2-0.7 0.4-1.2 0.6-1.4 0.2-0.2 0.7-0.4 1.2-0.5s1.6-0.2 3-0.2c1.1 0 2.1 0.1 2.8 0.2 0.7 0.1 1.3 0.3 1.7 0.6 0.4 0.3 0.5 0.7 0.5 1.2 0 0.5-0.1 1.1-0.3 1.8L107.4 70.6z"
     id="path4155"
     style="fill:#f2f2f2;stroke:#000000;stroke-opacity:1;stroke-width:0.25007042;stroke-miterlimit:4;stroke-dasharray:none" />
  <path
     d="M257.9 67.2c-0.2 0.7-0.4 1.2-0.6 1.6 -0.3 0.4-0.7 0.7-1.2 0.9 -0.6 0.2-1.3 0.3-2.1 0.4 -0.9 0.1-2 0.1-3.3 0.1 -1.5 0-2.7 0-3.6-0.1 -0.9-0.1-1.6-0.2-2.1-0.4 -0.5-0.2-0.9-0.5-1.1-0.9 -0.2-0.4-0.4-0.9-0.6-1.6l-8.2-34.2h-0.1l-7.7 34.2c-0.1 0.6-0.3 1.2-0.6 1.6 -0.2 0.4-0.6 0.7-1.1 0.9 -0.5 0.2-1.2 0.4-2.1 0.4 -0.9 0.1-2 0.1-3.5 0.1 -1.5 0-2.7 0-3.6-0.1 -0.9-0.1-1.6-0.2-2.1-0.4s-0.9-0.5-1.1-0.9c-0.2-0.4-0.4-0.9-0.6-1.6l-11.6-47.1c-0.2-1-0.4-1.8-0.4-2.4 0-0.6 0.1-1 0.5-1.3 0.3-0.3 0.9-0.5 1.6-0.6 0.7-0.1 1.8-0.1 3.1-0.1 1.2 0 2.2 0 2.9 0.1 0.7 0 1.3 0.1 1.6 0.3s0.6 0.4 0.7 0.7 0.2 0.7 0.3 1.2l8.9 41.3h0l9.3-41c0.1-0.5 0.2-1 0.4-1.3 0.2-0.3 0.5-0.6 0.9-0.8 0.4-0.2 1-0.3 1.7-0.4 0.7-0.1 1.7-0.1 2.8-0.1 1.3 0 2.3 0 3 0.1 0.7 0.1 1.3 0.2 1.7 0.4 0.4 0.2 0.7 0.4 0.9 0.8 0.2 0.3 0.3 0.8 0.4 1.3l9.6 41h0.1l8.9-41.2c0.1-0.4 0.2-0.8 0.3-1.1 0.1-0.3 0.4-0.6 0.8-0.8 0.4-0.2 0.9-0.3 1.6-0.4 0.7-0.1 1.6-0.1 2.9-0.1 1.2 0 2.1 0 2.7 0.1 0.6 0.1 1.1 0.3 1.4 0.6 0.3 0.3 0.4 0.8 0.4 1.4s-0.2 1.4-0.4 2.4L257.9 67.2z"
     id="path4157"
     style="fill:#f2f2f2;stroke:#000000;stroke-opacity:1;stroke-width:0.25007042;stroke-miterlimit:4;stroke-dasharray:none" />
  <path
     d="M284.8 18.8c0 2.1-0.4 3.6-1.2 4.4s-2.3 1.2-4.5 1.2c-2.2 0-3.7-0.4-4.5-1.2 -0.8-0.8-1.2-2.2-1.2-4.2 0-2.1 0.4-3.6 1.2-4.4 0.8-0.8 2.3-1.2 4.6-1.2 2.2 0 3.7 0.4 4.5 1.2C284.4 15.4 284.8 16.8 284.8 18.8zM284.1 68.6c0 0.3-0.1 0.5-0.2 0.7 -0.2 0.2-0.4 0.4-0.8 0.5 -0.4 0.1-0.9 0.2-1.5 0.3 -0.6 0.1-1.4 0.1-2.4 0.1s-1.8 0-2.4-0.1c-0.6-0.1-1.1-0.2-1.5-0.3 -0.4-0.1-0.7-0.3-0.8-0.5 -0.2-0.2-0.2-0.5-0.2-0.7V31.5c0-0.3 0.1-0.5 0.2-0.7 0.2-0.2 0.4-0.4 0.8-0.5 0.4-0.2 0.9-0.3 1.5-0.4 0.6-0.1 1.4-0.1 2.4-0.1s1.8 0 2.4 0.1c0.6 0.1 1.1 0.2 1.5 0.4 0.4 0.2 0.7 0.3 0.8 0.5 0.2 0.2 0.2 0.5 0.2 0.7V68.6z"
     id="path4159"
     style="fill:#f2f2f2;stroke:#000000;stroke-opacity:1;stroke-width:0.25007042;stroke-miterlimit:4;stroke-dasharray:none" />
  <path
     d="M316.9 58.1c0 2.1-0.4 4-1.1 5.6 -0.8 1.6-1.8 3-3.2 4 -1.4 1.1-3 1.9-4.8 2.4 -1.9 0.5-3.9 0.8-6.1 0.8 -1.3 0-2.6-0.1-3.8-0.3 -1.2-0.2-2.3-0.5-3.2-0.8 -0.9-0.3-1.7-0.6-2.4-1 -0.6-0.3-1.1-0.6-1.4-0.9 -0.3-0.3-0.5-0.8-0.7-1.4 -0.2-0.6-0.2-1.5-0.2-2.8 0-0.8 0-1.5 0.1-1.9 0.1-0.5 0.1-0.9 0.2-1.2 0.1-0.3 0.2-0.5 0.4-0.6 0.2-0.1 0.4-0.1 0.6-0.1 0.3 0 0.7 0.2 1.3 0.5 0.6 0.3 1.3 0.7 2.1 1.1 0.8 0.4 1.8 0.8 2.9 1.2 1.1 0.4 2.4 0.5 3.8 0.5 0.9 0 1.7-0.1 2.4-0.3 0.7-0.2 1.3-0.5 1.8-0.8 0.5-0.4 0.9-0.8 1.2-1.4 0.3-0.6 0.4-1.2 0.4-1.9 0-0.8-0.2-1.5-0.7-2.1 -0.5-0.6-1.1-1.1-1.9-1.6 -0.8-0.4-1.7-0.9-2.7-1.3 -1-0.4-2-0.8-3.1-1.3 -1.1-0.5-2.1-1-3.1-1.6 -1-0.6-1.9-1.4-2.7-2.3 -0.8-0.9-1.4-2-1.9-3.2 -0.5-1.3-0.7-2.8-0.7-4.5 0-1.8 0.3-3.4 1-4.9 0.7-1.5 1.6-2.8 2.8-3.8 1.2-1.1 2.7-1.9 4.5-2.5 1.8-0.6 3.8-0.9 6-0.9 1.1 0 2.2 0.1 3.2 0.3 1 0.2 2 0.4 2.8 0.6 0.8 0.3 1.6 0.5 2.1 0.8 0.6 0.3 1 0.5 1.2 0.8 0.3 0.2 0.4 0.4 0.5 0.6 0.1 0.2 0.2 0.5 0.2 0.8 0.1 0.3 0.1 0.7 0.1 1.1 0 0.4 0.1 1 0.1 1.6 0 0.8 0 1.4-0.1 1.8 0 0.5-0.1 0.9-0.2 1.1s-0.2 0.5-0.4 0.6c-0.2 0.1-0.3 0.1-0.6 0.1 -0.2 0-0.6-0.1-1.1-0.4 -0.5-0.3-1.1-0.6-1.9-0.9 -0.7-0.3-1.6-0.6-2.6-0.9s-2.1-0.4-3.4-0.4c-0.9 0-1.7 0.1-2.3 0.3 -0.7 0.2-1.2 0.5-1.6 0.8 -0.4 0.4-0.7 0.8-0.9 1.3 -0.2 0.5-0.3 1-0.3 1.6 0 0.9 0.2 1.6 0.7 2.2 0.5 0.6 1.2 1.1 2 1.5 0.8 0.4 1.7 0.9 2.8 1.3 1 0.4 2.1 0.8 3.2 1.3 1.1 0.5 2.1 1 3.2 1.6 1 0.6 2 1.4 2.8 2.3 0.8 0.9 1.5 2 2 3.2C316.7 54.9 316.9 56.4 316.9 58.1z"
     id="path4161"
     style="fill:#f2f2f2;stroke:#000000;stroke-opacity:1;stroke-width:0.25007042;stroke-miterlimit:4;stroke-dasharray:none" />
  <path
     d="M355.1 48.9c0 1.3-0.3 2.2-0.8 2.8 -0.5 0.6-1.3 0.9-2.2 0.9h-21.4c0 1.6 0.2 3 0.5 4.3 0.4 1.3 0.9 2.4 1.7 3.3 0.8 0.9 1.8 1.6 3 2.1 1.2 0.5 2.7 0.7 4.4 0.7 1.7 0 3.3-0.1 4.6-0.4 1.3-0.3 2.5-0.6 3.4-0.9 1-0.3 1.8-0.6 2.4-0.9 0.6-0.3 1.1-0.4 1.5-0.4 0.2 0 0.4 0 0.6 0.1 0.2 0.1 0.3 0.3 0.4 0.5 0.1 0.3 0.2 0.6 0.2 1.1 0 0.5 0.1 1 0.1 1.7 0 0.6 0 1.1 0 1.6s-0.1 0.8-0.1 1.1c-0.1 0.3-0.1 0.6-0.2 0.8 -0.1 0.2-0.2 0.4-0.4 0.6 -0.2 0.2-0.6 0.5-1.4 0.8 -0.8 0.3-1.7 0.7-2.9 1 -1.2 0.3-2.5 0.6-4.1 0.8 -1.5 0.2-3.2 0.4-4.9 0.4 -3.1 0-5.9-0.4-8.2-1.3 -2.3-0.8-4.3-2.1-5.9-3.8 -1.6-1.7-2.8-3.8-3.5-6.4 -0.8-2.6-1.2-5.6-1.2-9.1 0-3.3 0.4-6.3 1.2-8.9s2-4.9 3.5-6.8c1.6-1.8 3.4-3.3 5.7-4.2 2.2-1 4.7-1.5 7.5-1.5 2.9 0 5.5 0.5 7.6 1.4 2.1 0.9 3.8 2.2 5.1 3.8 1.3 1.6 2.3 3.6 3 5.8 0.6 2.2 0.9 4.6 0.9 7.3v1.7H355.1zM345.5 45.9c0.1-2.9-0.5-5.3-1.7-6.9 -1.2-1.7-3-2.5-5.5-2.5 -1.3 0-2.4 0.3-3.3 0.8 -0.9 0.5-1.7 1.2-2.3 2 -0.6 0.8-1.1 1.9-1.4 3 -0.3 1.2-0.5 2.4-0.6 3.7H345.5z"
     id="path4163"
     style="fill:#f2f2f2;stroke:#000000;stroke-opacity:1;stroke-width:0.25007042;stroke-miterlimit:4;stroke-dasharray:none" />
  <path
     d="m 138,23.801126 c -1.6,0 -2,-0.9 -0.7,-1.9 L 157.7,5.3011266 c 1.3,-1 3.4,-1 4.7,0 l 20.4,16.5999994 c 1.3,1 1,1.9 -0.7,1.9 l -44.1,0 z"
     id="path4165"
     inkscape:connector-curvature="0" />
  <path
     d="m 138,23.801126 c -1.6,0 -2,-0.9 -0.7,-1.9 L 157.7,5.3011266 c 1.3,-1 3.4,-1 4.7,0 l 20.4,16.5999994 c 1.3,1 1,1.9 -0.7,1.9 l -44.1,0 z"
     class="b"
     id="path4167"
     style="fill:#f2f2f2;stroke:#000000;stroke-width:0.25007042;stroke-miterlimit:4;stroke-dasharray:none;stroke-opacity:1"
     inkscape:connector-curvature="0" />
  <polygon
     points="140.4,19.5 160.3,19.5 160.3,50.9 150.1,50.9 "
     class="c"
     id="polygon4169"
     style="fill:#f2f2f2;stroke:#000000;stroke-width:0.25007042;stroke-miterlimit:4;stroke-dasharray:none;stroke-opacity:1"
     transform="translate(0,4.0011266)" />
  <line
     x1="140.39999"
     y1="23.501125"
     x2="160.3"
     y2="23.501125"
     class="b"
     id="line4171"
     style="fill:none;stroke:#000000;stroke-width:0.25007042;stroke-miterlimit:4;stroke-dasharray:none" />
  <polygon
     points="180.3,19.5 160.3,19.5 160.3,50.9 170.6,50.9 "
     class="c"
     id="polygon4173"
     style="fill:#f2f2f2;stroke:#000000;stroke-width:0.25007042;stroke-miterlimit:4;stroke-dasharray:none;stroke-opacity:1"
     transform="translate(0,4.0011266)" />
  <path
     d="m 164.1,73.701126 c 0,0.6 -0.9,1.2 -2,1.2 l -2.7,0 c -1.1,0 -2,-0.5 -2,-1.2 l 0,-17.6 c 0,-0.6 0.9,-1.2 2,-1.2 l 2.7,0 c 1.1,0 2,0.5 2,1.2 l 0,17.6 z"
     id="path4175"
     style="fill:#f2f2f2;stroke:#000000;stroke-width:0.25007042;stroke-miterlimit:4;stroke-dasharray:none;stroke-opacity:1"
     inkscape:connector-curvature="0" />
  <line
     x1="183.89999"
     y1="38.601128"
     x2="191.10001"
     y2="38.601128"
     class="c"
     id="line4177"
     style="fill:#ececec;stroke:#f2f2f2;stroke-width:2.00056338;stroke-miterlimit:4;stroke-dasharray:none;stroke-opacity:1" />
  <line
     x1="183.89999"
     y1="34.101128"
     x2="190.3"
     y2="30.501125"
     class="c"
     id="line4179"
     style="fill:#ececec;stroke:#f2f2f2;stroke-width:2.00056338;stroke-miterlimit:4;stroke-dasharray:none;stroke-opacity:1" />
  <line
     x1="183.89999"
     y1="43.601128"
     x2="190.39999"
     y2="46.901131"
     class="c"
     id="line4181"
     style="fill:#ececec;stroke:#f2f2f2;stroke-width:2.00056338;stroke-miterlimit:4;stroke-dasharray:none;stroke-opacity:1" />
  <line
     x1="138.10001"
     y1="38.001129"
     x2="131.2"
     y2="38.001129"
     class="c"
     id="line4183"
     style="fill:#cccccc;stroke:#f2f2f2;stroke-width:2.00056338;stroke-miterlimit:4;stroke-dasharray:none;stroke-opacity:1" />
  <line
     x1="138.2"
     y1="33.501125"
     x2="132.10001"
     y2="29.901125"
     class="c"
     id="line4185"
     style="fill:#f2f2f2;stroke:#f2f2f2;stroke-width:2.00056338;stroke-miterlimit:4;stroke-dasharray:none;stroke-opacity:1" />
  <line
     x1="138.10001"
     y1="43.001129"
     x2="131.89999"
     y2="46.301128"
     class="c"
     id="line4187"
     style="fill:#f2f2f2;stroke:#f2f2f2;stroke-width:2.00056338;stroke-miterlimit:4;stroke-dasharray:none;stroke-opacity:1" />
</svg>
